<svg width="21" height="20" viewBox="0 0 21 20" fill="none" xmlns="http://www.w3.org/2000/svg">
<path d="M11.8896 3.125C11.8896 2.43359 11.3311 1.875 10.6396 1.875C9.94824 1.875 9.38965 2.43359 9.38965 3.125V8.75H3.76465C3.07324 8.75 2.51465 9.30859 2.51465 10C2.51465 10.6914 3.07324 11.25 3.76465 11.25H9.38965V16.875C9.38965 17.5664 9.94824 18.125 10.6396 18.125C11.3311 18.125 11.8896 17.5664 11.8896 16.875V11.25H17.5146C18.2061 11.25 18.7646 10.6914 18.7646 10C18.7646 9.30859 18.2061 8.75 17.5146 8.75H11.8896V3.125Z" fill="white"/>
</svg>
