<svg width="21" height="20" viewBox="0 0 21 20" fill="none" xmlns="http://www.w3.org/2000/svg">
<path d="M20.2798 3.125C20.2798 3.82812 19.7212 4.47656 18.7798 5C17.6431 5.62891 15.9478 6.07422 14.0024 6.20703C13.8579 6.13672 13.7134 6.07031 13.561 6.01172C12.022 5.36719 9.9751 5 7.77979 5C7.45557 5 7.13916 5.00781 6.82275 5.02344L6.77979 5C5.83838 4.47656 5.27979 3.82812 5.27979 3.125C5.27979 1.39844 8.63916 0 12.7798 0C16.9204 0 20.2798 1.39844 20.2798 3.125ZM6.55713 6.29297C6.95557 6.26563 7.36572 6.25 7.77979 6.25C10.2095 6.25 12.3657 6.73047 13.7368 7.47656C14.7056 8.00391 15.2798 8.66016 15.2798 9.375C15.2798 9.53125 15.2524 9.68359 15.1978 9.83203C15.0181 10.3477 14.5337 10.8203 13.8306 11.2188C13.8267 11.2227 13.8188 11.2227 13.8149 11.2266C13.8032 11.2344 13.7915 11.2383 13.7798 11.2461C12.4126 12.0039 10.2329 12.4961 7.77979 12.4961C5.45166 12.4961 3.36963 12.0547 1.99072 11.3594C1.9165 11.3242 1.84619 11.2852 1.77588 11.2461C0.838379 10.7266 0.279785 10.0781 0.279785 9.375C0.279785 8.01562 2.36572 6.85547 5.27979 6.42969C5.68994 6.37109 6.11572 6.32422 6.55713 6.29297ZM16.5298 9.375C16.5298 8.51953 16.1157 7.81641 15.5884 7.28906C16.6938 7.11719 17.7056 6.84375 18.5649 6.48828C19.2017 6.22266 19.7954 5.89453 20.2798 5.49219V6.875C20.2798 7.62891 19.6353 8.32422 18.5688 8.86328C17.9985 9.15234 17.3032 9.39844 16.522 9.58594C16.5259 9.51562 16.5298 9.44922 16.5298 9.37891V9.375ZM15.2798 13.125C15.2798 13.8281 14.7212 14.4766 13.7798 15C13.7095 15.0391 13.6392 15.0742 13.5649 15.1133C12.1899 15.8086 10.1079 16.25 7.77979 16.25C5.32666 16.25 3.14697 15.7578 1.77979 15C0.838379 14.4766 0.279785 13.8281 0.279785 13.125V11.7422C0.768066 12.1445 1.35791 12.4727 1.99463 12.7383C3.5376 13.3828 5.58447 13.75 7.77979 13.75C9.9751 13.75 12.022 13.3828 13.5649 12.7383C13.8696 12.6133 14.1626 12.4688 14.4399 12.3125C14.6782 12.1797 14.9009 12.0312 15.1118 11.875C15.1704 11.832 15.2251 11.7852 15.2798 11.7422V11.875V12.0977V13.125ZM16.5298 13.125V11.875V10.8633C17.272 10.6992 17.9556 10.4922 18.5649 10.2383C19.2017 9.97266 19.7954 9.64453 20.2798 9.24219V10.625C20.2798 11.0352 20.0845 11.4453 19.6978 11.832C19.061 12.4688 17.9399 12.9922 16.522 13.332C16.5259 13.2656 16.5298 13.1953 16.5298 13.125ZM7.77979 17.5C9.9751 17.5 12.022 17.1328 13.5649 16.4883C14.2017 16.2227 14.7954 15.8945 15.2798 15.4922V16.875C15.2798 18.6016 11.9204 20 7.77979 20C3.63916 20 0.279785 18.6016 0.279785 16.875V15.4922C0.768066 15.8945 1.35791 16.2227 1.99463 16.4883C3.5376 17.1328 5.58447 17.5 7.77979 17.5Z" fill="white"/>
</svg>
