<svg width="25" height="24" viewBox="0 0 25 24" fill="none" xmlns="http://www.w3.org/2000/svg">
<path d="M16.3598 12C15.3961 12 14.4642 11.5697 13.7348 10.7888C13.0256 10.027 12.5925 9.01125 12.5161 7.92938C12.4345 6.77531 12.7865 5.71406 13.507 4.94063C14.2275 4.16719 15.2348 3.75 16.3598 3.75C17.4768 3.75 18.487 4.17469 19.2051 4.94625C19.9303 5.72531 20.2832 6.78469 20.2017 7.92891C20.1234 9.01219 19.6907 10.0275 18.9829 10.7883C18.2554 11.5697 17.324 12 16.3598 12ZM22.5393 20.25H10.1807C9.98205 20.2511 9.78576 20.2065 9.60697 20.1198C9.42819 20.0331 9.27168 19.9065 9.1495 19.7498C9.01989 19.58 8.93039 19.383 8.88769 19.1736C8.84499 18.9643 8.8502 18.748 8.90294 18.5409C9.29762 16.9561 10.2754 15.6417 11.7304 14.7403C13.0218 13.9406 14.6657 13.5 16.3598 13.5C18.0872 13.5 19.6879 13.9219 20.9868 14.7211C22.4451 15.6178 23.4243 16.9397 23.8172 18.5438C23.8693 18.751 23.8739 18.9673 23.8307 19.1765C23.7875 19.3857 23.6976 19.5825 23.5678 19.7522C23.4457 19.9082 23.2896 20.0341 23.1113 20.1204C22.933 20.2067 22.7374 20.251 22.5393 20.25ZM7.50044 12.1875C5.8509 12.1875 4.40059 10.6538 4.26606 8.76891C4.1995 7.80328 4.50044 6.91031 5.10981 6.25547C5.71262 5.60719 6.56293 5.25 7.50044 5.25C8.43794 5.25 9.28168 5.60906 9.88778 6.26109C10.5018 6.92109 10.8018 7.81219 10.7315 8.76984C10.597 10.6542 9.14715 12.1875 7.50044 12.1875ZM10.5782 13.6617C9.75372 13.2586 8.68356 13.057 7.5009 13.057C6.11997 13.057 4.77887 13.417 3.72419 14.0705C2.5284 14.8125 1.72403 15.893 1.39918 17.1975C1.35165 17.3851 1.34715 17.5811 1.38603 17.7707C1.42491 17.9603 1.50617 18.1387 1.62372 18.2925C1.73525 18.4357 1.87815 18.5514 2.0414 18.6307C2.20466 18.71 2.38393 18.7508 2.56544 18.75H7.76856C7.85638 18.75 7.94141 18.7192 8.00883 18.6629C8.07624 18.6066 8.12177 18.5284 8.13747 18.442C8.14262 18.4125 8.14919 18.383 8.15669 18.3539C8.55419 16.7573 9.48559 15.4083 10.8618 14.4248C10.9125 14.3884 10.9532 14.3398 10.9803 14.2836C11.0074 14.2274 11.0201 14.1653 11.0171 14.103C11.0142 14.0407 10.9958 13.9801 10.9635 13.9267C10.9312 13.8733 10.8861 13.8288 10.8323 13.7972C10.7587 13.7541 10.6743 13.7086 10.5782 13.6617Z" fill="white"/>
</svg>
