<svg width="16" height="16" viewBox="0 0 16 16" fill="none" xmlns="http://www.w3.org/2000/svg">
<path d="M6.66563 1.01272C7.20937 1.10334 7.57812 1.61897 7.4875 2.16272L7.18125 4.00022H10.1531L10.5125 1.83459C10.6031 1.29084 11.1188 0.922093 11.6625 1.01272C12.2063 1.10334 12.575 1.61897 12.4844 2.16272L12.1812 4.00022H14C14.5531 4.00022 15 4.44709 15 5.00022C15 5.55334 14.5531 6.00022 14 6.00022H11.8469L11.1812 10.0002H13C13.5531 10.0002 14 10.4471 14 11.0002C14 11.5533 13.5531 12.0002 13 12.0002H10.8469L10.4875 14.1658C10.3969 14.7096 9.88125 15.0783 9.3375 14.9877C8.79375 14.8971 8.425 14.3815 8.51562 13.8377L8.82188 12.0033H5.84688L5.4875 14.169C5.39688 14.7127 4.88125 15.0815 4.3375 14.9908C3.79375 14.9002 3.425 14.3846 3.51562 13.8408L3.81875 12.0002H2C1.44687 12.0002 1 11.5533 1 11.0002C1 10.4471 1.44687 10.0002 2 10.0002H4.15313L4.81875 6.00022H3C2.44687 6.00022 2 5.55334 2 5.00022C2 4.44709 2.44687 4.00022 3 4.00022H5.15312L5.5125 1.83459C5.60312 1.29084 6.11875 0.922093 6.6625 1.01272H6.66563ZM6.84688 6.00022L6.18125 10.0002H9.15312L9.81875 6.00022H6.84688Z" fill="white"/>
</svg>
