<svg width="13" height="12" viewBox="0 0 13 12" fill="none" xmlns="http://www.w3.org/2000/svg">
<g opacity="0.6">
<path d="M6.60986 12C8.20116 12 9.72729 11.3679 10.8525 10.2426C11.9777 9.11742 12.6099 7.5913 12.6099 6C12.6099 4.4087 11.9777 2.88258 10.8525 1.75736C9.72729 0.632141 8.20116 0 6.60986 0C5.01856 0 3.49244 0.632141 2.36722 1.75736C1.242 2.88258 0.609863 4.4087 0.609863 6C0.609863 7.5913 1.242 9.11742 2.36722 10.2426C3.49244 11.3679 5.01856 12 6.60986 12ZM7.30736 4.941L6.55736 8.46975C6.50486 8.72475 6.57911 8.8695 6.78536 8.8695C6.93086 8.8695 7.15061 8.817 7.29986 8.685L7.23386 8.997C7.01861 9.2565 6.54386 9.4455 6.13511 9.4455C5.60786 9.4455 5.38361 9.129 5.52911 8.45625L6.08261 5.85525C6.13061 5.6355 6.08711 5.556 5.86736 5.50275L5.52911 5.442L5.59061 5.15625L7.30736 4.941ZM6.60986 4.125C6.41095 4.125 6.22019 4.04598 6.07953 3.90533C5.93888 3.76468 5.85986 3.57391 5.85986 3.375C5.85986 3.17609 5.93888 2.98532 6.07953 2.84467C6.22019 2.70402 6.41095 2.625 6.60986 2.625C6.80878 2.625 6.99954 2.70402 7.14019 2.84467C7.28085 2.98532 7.35986 3.17609 7.35986 3.375C7.35986 3.57391 7.28085 3.76468 7.14019 3.90533C6.99954 4.04598 6.80878 4.125 6.60986 4.125Z" fill="white"/>
</g>
</svg>
