<svg width="17" height="18" viewBox="0 0 17 18" fill="none" xmlns="http://www.w3.org/2000/svg">
<path d="M8.33028 4.93751C9.01016 4.93751 9.67476 5.13911 10.2401 5.51683C10.8053 5.89455 11.2459 6.43141 11.5061 7.05953C11.7663 7.68766 11.8344 8.37882 11.7017 9.04563C11.5691 9.71244 11.2417 10.3249 10.761 10.8057C10.2802 11.2864 9.66771 11.6138 9.00091 11.7465C8.3341 11.8791 7.64293 11.811 7.01481 11.5508C6.38669 11.2907 5.84982 10.8501 5.47211 10.2848C5.09439 9.71949 4.89278 9.05488 4.89278 8.37501C4.89278 7.46333 5.25495 6.58899 5.8996 5.94433C6.54426 5.29967 7.4186 4.93751 8.33028 4.93751ZM12.0803 4.00001H13.3303V5.25001C13.3303 5.41577 13.3961 5.57474 13.5133 5.69195C13.6305 5.80916 13.7895 5.87501 13.9553 5.87501C14.121 5.87501 14.28 5.80916 14.3972 5.69195C14.5144 5.57474 14.5803 5.41577 14.5803 5.25001V4.00001H15.8303C15.996 4.00001 16.155 3.93416 16.2722 3.81695C16.3894 3.69974 16.4553 3.54077 16.4553 3.37501C16.4553 3.20925 16.3894 3.05028 16.2722 2.93307C16.155 2.81586 15.996 2.75001 15.8303 2.75001H14.5803V1.50001C14.5803 1.33425 14.5144 1.17528 14.3972 1.05807C14.28 0.940857 14.121 0.875009 13.9553 0.875009C13.7895 0.875009 13.6305 0.940857 13.5133 1.05807C13.3961 1.17528 13.3303 1.33425 13.3303 1.50001V2.75001H12.0803C11.9145 2.75001 11.7555 2.81586 11.6383 2.93307C11.5211 3.05028 11.4553 3.20925 11.4553 3.37501C11.4553 3.54077 11.5211 3.69974 11.6383 3.81695C11.7555 3.93416 11.9145 4.00001 12.0803 4.00001ZM15.6233 7.1336C15.4598 7.16096 15.3139 7.25213 15.2176 7.38707C15.1213 7.52201 15.0826 7.68965 15.11 7.85313C15.1734 8.23213 15.2053 8.61574 15.2053 9.00001C15.2068 10.683 14.5882 12.3075 13.4678 13.5633C13.0132 12.9044 12.436 12.3392 11.7678 11.8984C11.7107 11.8606 11.6428 11.8426 11.5745 11.8471C11.5062 11.8516 11.4412 11.8784 11.3897 11.9234C10.5405 12.6582 9.45514 13.0626 8.33223 13.0626C7.20933 13.0626 6.12397 12.6582 5.27481 11.9234C5.22292 11.8775 5.15723 11.8501 5.08807 11.8456C5.01892 11.8411 4.95022 11.8597 4.89278 11.8984C4.22353 12.3387 3.64552 12.904 3.19044 13.5633C2.31118 12.5725 1.73689 11.3488 1.53663 10.0393C1.33638 8.72985 1.5187 7.39042 2.06165 6.18212C2.60461 4.97382 3.48508 3.94811 4.59716 3.22836C5.70925 2.5086 7.0056 2.12546 8.33028 2.12501C8.71455 2.12495 9.09817 2.15683 9.47716 2.22032C9.6399 2.246 9.8062 2.20638 9.93988 2.11008C10.0736 2.01378 10.1638 1.86859 10.191 1.70609C10.2182 1.54359 10.1801 1.37693 10.0851 1.24236C9.99 1.10779 9.84565 1.0162 9.68341 0.987509C7.9861 0.701974 6.24195 0.963239 4.70281 1.73358C3.16366 2.50393 1.90916 3.74348 1.12043 5.27329C0.331692 6.80309 0.0495429 8.54397 0.314716 10.2446C0.57989 11.9452 1.37866 13.5175 2.59571 14.7346C3.81275 15.9516 5.38509 16.7504 7.0857 17.0156C8.78632 17.2807 10.5272 16.9986 12.057 16.2099C13.5868 15.4211 14.8264 14.1666 15.5967 12.6275C16.3671 11.0883 16.6283 9.3442 16.3428 7.64688C16.3154 7.48341 16.2243 7.33749 16.0893 7.24123C15.9544 7.14498 15.7867 7.10626 15.6233 7.1336Z" fill="white"/>
</svg>
