<svg width="128" height="128" viewBox="0 0 128 128" fill="none" xmlns="http://www.w3.org/2000/svg">
<mask id="mask0_22_539" style="mask-type:luminance" maskUnits="userSpaceOnUse" x="0" y="0" width="128" height="128">
<path d="M128 0H0V128H128V0Z" fill="white"/>
</mask>
<g mask="url(#mask0_22_539)">
<mask id="mask1_22_539" style="mask-type:luminance" maskUnits="userSpaceOnUse" x="-22" y="-30" width="166" height="166">
<path d="M143.48 26.6182L34.8773 -29.7432L-21.484 78.8597L87.1189 135.221L143.48 26.6182Z" fill="white"/>
</mask>
<g mask="url(#mask1_22_539)">
<path d="M45.7305 5.51695C45.8086 5.49158 48.5941 4.67827 48.5372 4.60513C78.7498 -5.21633 99.6319 60.0894 69.7314 69.8094C69.7587 69.7912 66.8669 70.5825 66.9628 70.6141C96.8534 60.8973 75.7766 -4.25037 45.7305 5.51695Z" fill="url(#paint0_linear_22_539)"/>
<path d="M35.5615 19.4385C40.0977 3.76036 54.2637 -0.968062 67.2015 8.87793C80.1385 18.7214 86.9484 39.4098 82.4114 55.0857C81.139 59.482 79.1102 63.0165 76.5618 65.6102C70.227 71.3461 62.4744 70.7418 61.7037 70.5697C58.123 70.0217 54.398 68.4076 50.7713 65.6464C37.8328 55.8034 31.0231 35.1157 35.5615 19.4385ZM52.043 61.253C62.9763 69.572 74.9498 65.5763 78.7856 52.327C82.619 39.0765 76.8632 21.5904 65.9299 13.2714C54.9941 4.95054 43.021 8.94762 39.1873 22.1973C35.3513 35.4458 41.1073 52.9322 52.043 61.253Z" fill="url(#paint1_linear_22_539)"/>
<path d="M78.1235 22.1624C83.4711 32.2974 85.3955 44.7755 82.4115 55.0856C81.139 59.482 77.4524 67.8665 69.2446 69.9992" stroke="#939098" stroke-width="1.91182" stroke-linecap="round" stroke-linejoin="round"/>
<path d="M52.0539 61.2032C62.9858 69.5211 74.9577 65.5258 78.793 52.2782C82.626 39.0294 76.8709 21.5453 65.9391 13.2274C55.0047 4.90757 43.0331 8.90442 39.1998 22.1524C35.3643 35.3993 41.1195 52.8833 52.0539 61.2032Z" stroke="#6A6F76" stroke-width="1.91182" stroke-linecap="round" stroke-linejoin="round"/>
<g opacity="0.1">
<path d="M58.5027 27.0231C66.3294 29.1769 73.1035 30.917 73.7108 29.5006C74.3836 27.9312 69.9172 17.6756 59.9785 13.9064C49.1292 9.7918 43.1058 18.5291 43.553 21.0087C44.0046 23.5132 52.6314 25.4075 58.5027 27.0231Z" fill="white"/>
</g>
<g opacity="0.956706">
<path d="M32.9126 20.2994C37.4488 4.6212 51.6148 -0.107223 64.5526 9.73877C77.4895 19.5823 84.2994 40.2706 79.7625 55.9465C78.49 60.3429 76.4613 63.8773 73.9129 66.4711C67.578 72.207 59.8255 71.6027 59.0548 71.4305C55.4741 70.8825 51.7491 69.2684 48.1224 66.5072C35.1838 56.6642 28.3742 35.9765 32.9126 20.2994ZM49.3941 62.1139C60.3274 70.4328 72.3009 66.4371 76.1366 53.1878C79.9701 39.9373 74.2142 22.4512 63.281 14.1323C52.3452 5.81138 40.3721 9.80846 36.5384 23.0581C32.7024 36.3067 38.4583 53.793 49.3941 62.1139Z" fill="url(#paint2_linear_22_539)"/>
<path d="M79.7625 55.9465C84.2994 40.2706 77.4895 19.5823 64.5526 9.73877C51.6148 -0.107223 37.4488 4.6212 32.9126 20.2994C28.3742 35.9765 35.1839 56.6642 48.1224 66.5072M79.7625 55.9465C78.49 60.3429 76.4613 63.8773 73.9129 66.4711M79.7625 55.9465C82.7465 45.6364 80.8221 33.1583 75.4745 23.0233M73.9129 66.4711C66.8933 72.6181 59.8255 71.6027 59.0548 71.4305M73.9129 66.4711C68.9765 72.0037 59.8255 71.6027 59.0548 71.4305M59.0548 71.4305C55.4741 70.8825 51.7491 69.2684 48.1224 66.5072M48.1224 66.5072C37.3897 58.3424 30.8742 42.7153 31.555 28.6761" stroke="#6498BF" stroke-width="1.91182" stroke-miterlimit="10"/>
<path d="M75.4746 23.0233C80.8222 33.1582 82.7465 45.6363 79.7626 55.9465C78.4901 60.3428 74.8035 68.7273 66.5957 70.86" stroke="#939098" stroke-width="1.91182" stroke-linecap="round" stroke-linejoin="round"/>
<path d="M49.405 62.064C60.3369 70.3819 72.3088 66.3867 76.1441 53.139C79.9771 39.8903 74.222 22.4061 63.2901 14.0882C52.3558 5.76841 40.3841 9.76526 36.5509 23.0133C32.7154 36.2601 38.4706 53.7442 49.405 62.064Z" stroke="#6A6F76" stroke-width="1.91182" stroke-linecap="round" stroke-linejoin="round"/>
<path d="M35.7621 26.5748C33.7611 39.2464 39.4262 54.4713 49.4049 62.064C60.3368 70.3818 72.3086 66.3858 76.1441 53.1389C77.357 48.9467 77.6099 44.3307 77.0426 39.715" stroke="#98A5BA" stroke-width="1.91182" stroke-linecap="round" stroke-linejoin="round"/>
<path d="M43.8478 56.5291C45.5002 58.6357 47.3623 60.5099 49.405 62.0642M39.7274 49.9653C39.9631 50.4392 40.2074 50.9076 40.4604 51.3699" stroke="white" stroke-width="0.775448" stroke-linecap="round" stroke-linejoin="round"/>
<path d="M66.6212 70.8553C58.5496 73.3199 51.749 69.2683 48.1223 66.507C37.3896 58.3422 30.8742 42.715 31.5549 28.6759" stroke="#9A8E80" stroke-width="1.91182" stroke-linecap="round" stroke-linejoin="round"/>
<g opacity="0.069346">
<path d="M55.8537 27.884C63.6805 30.0378 70.4546 31.7779 71.0619 30.3614C71.7347 28.792 67.2683 18.5365 57.3296 14.7672C46.4803 10.6526 40.4569 19.39 40.904 21.8696C41.3556 24.3741 49.9824 26.2683 55.8537 27.884Z" fill="white"/>
</g>
</g>
<path d="M45.7378 5.51445C45.8161 5.48899 48.5867 4.6808 48.5298 4.60752C78.8143 -5.2373 99.6955 60.0685 69.724 69.8116C69.7512 69.7933 66.8735 70.58 66.9697 70.6117C92.2532 53.5227 73.737 1.59722 45.7378 5.51445Z" fill="url(#paint3_linear_22_539)"/>
<path d="M47.766 4.95261C47.0982 5.10513 46.4219 5.29206 45.7378 5.51444C45.8162 5.48898 48.5867 4.6808 48.5298 4.60752C78.8143 -5.2373 99.6955 60.0685 69.724 69.8116C69.7512 69.7933 66.8735 70.58 66.9697 70.6117C69.3869 69.826 71.4387 68.4943 73.1447 66.7381" stroke="#70757B" stroke-width="1.91182" stroke-linecap="round" stroke-linejoin="round"/>
<path d="M76.7636 65.5539C76.2425 66.1367 75.8353 68.0966 77.3135 71.756L62.2599 76.7787C61.323 73.0403 59.7869 71.606 59.0157 71.4341C55.4321 70.887 79.3076 62.9616 76.7636 65.5539Z" fill="url(#paint4_linear_22_539)"/>
<path d="M76.7637 65.5537C76.2425 66.1365 75.8354 68.0965 77.3136 71.7559" stroke="#85858C" stroke-width="1.91182" stroke-linecap="round" stroke-linejoin="round"/>
<path d="M62.26 76.7789C61.3231 73.0405 59.787 71.6063 59.0158 71.4343" stroke="#89847E" stroke-width="1.91182" stroke-linecap="round" stroke-linejoin="round"/>
<path d="M66.5651 70.6742L67.1523 72.4576C67.5498 73.665 69.254 74.1844 70.0822 73.9079L75.5129 72.2197C76.2383 71.9777 76.6135 71.0126 76.3961 69.9294C75.8762 67.3377 75.9752 65.8907 76.4054 65.4093C76.6065 65.2063 76.8021 64.9974 76.9956 64.7817L68.9368 67.4653C68.1085 67.7419 66.1676 69.4668 66.5651 70.6742Z" fill="url(#paint5_linear_22_539)"/>
<g opacity="0.7">
<path d="M76.2756 67.1523C75.0311 67.9049 74.781 69.144 76.0876 72.279" stroke="#E2E9EC" stroke-width="1.91182" stroke-linecap="round" stroke-linejoin="round"/>
</g>
<path d="M82.6572 55.0039C81.3803 59.4017 79.3462 62.9379 76.7923 65.5334C76.269 66.1169 75.8544 68.2042 77.3334 71.8634" stroke="#4B4D4F" stroke-width="1.91182" stroke-linecap="round" stroke-linejoin="round"/>
<path d="M62.2985 76.592C61.3618 72.8535 59.8383 71.5957 59.0664 71.4239C55.4801 70.8777 51.7245 69.2735 48.0933 66.5137" stroke="#4B4D4F" stroke-width="1.91182" stroke-linecap="round" stroke-linejoin="round"/>
<g opacity="0.405606">
<g opacity="0.4">
<path d="M62.3709 9.02653C62.3709 9.02653 77.8244 17.6678 80.3537 40.4284C82.1099 56.2327 71.2901 67.6253 64.5658 66.8614C64.5658 66.8614 78.0823 62.7224 78.2392 44.7113C78.8941 22.5125 62.3709 9.02653 62.3709 9.02653Z" fill="white"/>
</g>
<path d="M84.6794 41.6621C84.6794 41.6621 85.9165 49.9754 83.2066 55.8776L81.7633 54.8658C81.7633 54.8658 84.3043 48.0434 84.6794 41.6621Z" fill="#4B4D4F"/>
<path d="M37.252 54.8275C37.252 54.8275 41.0279 62.3132 48.5136 67.7802L48.9713 66.2041C48.9713 66.2041 42.1784 61.5597 37.252 54.8275Z" fill="#4B4D4F"/>
<g opacity="0.6">
<path d="M51.0545 10.1235C51.0545 10.1235 30.1847 9.78208 31.574 33.7348C32.6496 52.2795 44.7385 67.2759 55.2732 70.4755C56.9571 70.9868 60.4485 70.5532 62.7197 77.7815L65.6717 76.7962C65.6717 76.7962 64.2699 66.4523 59.4732 65.3843C54.6766 64.3164 48.9753 63.1885 42.8851 54.0573C36.7949 44.9262 34.2472 33.1681 35.8054 26.5414C37.3636 19.9148 40.001 12.7315 51.0545 10.1235Z" fill="url(#paint6_linear_22_539)"/>
</g>
<g opacity="0.3">
<path d="M75.238 71.1015C75.9961 70.8317 76.565 70.7127 77.125 70.8526" stroke="#69899C" stroke-width="1.91182" stroke-linecap="round" stroke-linejoin="round"/>
</g>
<g opacity="0.6">
<path d="M34.9177 39.5282C34.9177 39.5282 36.0178 51.7721 46.2206 61.9453C57.6738 73.365 74.4521 69.9272 77.1624 51.2476C77.1624 51.2476 69.8454 71.0377 53.6671 64.7354C40.6741 59.674 34.9177 39.5282 34.9177 39.5282Z" fill="#4B4D4F"/>
</g>
<path d="M71.269 24.3662C71.269 24.3662 75.2807 30.7661 76.4007 39.7036L77.7526 39.7351C77.2366 34.8163 74.8363 29.1189 71.269 24.3662Z" fill="#98A5BA"/>
<path d="M77.7614 22.3667C77.7614 22.3667 81.0582 26.9394 82.802 31.4774C82.802 31.4774 81.9808 28.254 80.6214 25.2176C79.262 22.1811 78.2621 20.4898 78.2621 20.4898L77.3328 21.5809C77.3328 21.5809 77.6234 22.0992 77.7614 22.3667Z" fill="#6498BF"/>
<path d="M42.5066 14.3931C42.5066 14.3931 37.7058 18.2676 36.4056 27.126L35.0328 26.3585C35.0328 26.3585 36.0499 18.6985 42.5066 14.3931Z" fill="#98A5BA"/>
<path d="M34.2346 18.644C34.2346 18.644 30.9882 24.1841 30.8029 28.9241L32.1832 29.2036C32.1832 29.2036 32.4218 23.4899 34.2346 18.644Z" fill="#9A8E80"/>
</g>
<g opacity="0.2">
<path d="M69.7448 37.3866L69.95 38.414C69.984 38.5843 70.0945 38.7283 70.2192 38.765L70.5743 38.8691C70.7382 38.9174 70.8616 38.7641 70.8421 38.5412C70.8113 38.1879 70.7618 37.8337 70.6947 37.4811C70.6617 37.3084 70.5498 37.1613 70.4235 37.1247L70.0034 37.003C69.8235 36.9509 69.6956 37.1405 69.7448 37.3866Z" fill="white"/>
</g>
<g opacity="0.2">
<path d="M67.7942 38.8035L68.2794 38.946C68.6101 39.043 68.8444 38.6926 68.7507 38.2406L68.3637 36.3718C68.2999 36.0634 68.0989 35.8039 67.8732 35.7385L67.2721 35.5643C66.9251 35.4637 66.6905 35.8544 66.8151 36.325L67.318 38.2253C67.3935 38.5106 67.5838 38.7418 67.7942 38.8035Z" fill="white"/>
</g>
<g opacity="0.2">
<path d="M53.0239 35.4913L58.4687 36.3681C59.0135 36.528 59.3965 35.9448 59.2356 35.2011L59.02 34.2047C58.9122 33.7068 58.5866 33.2907 58.2219 33.1851L52.4919 30.3414C51.9708 30.1904 51.5924 30.7213 51.713 31.4344L52.2137 34.3977C52.3024 34.9234 52.6397 35.3784 53.0239 35.4913Z" fill="white"/>
</g>
<g opacity="0.2">
<path d="M40.3056 31.76L49.6642 34.5063C50.1785 34.6573 50.5567 34.1436 50.4496 33.4401L50.0027 30.5054C49.9211 29.9688 49.5781 29.4985 49.186 29.3848L40.597 26.8963C40.2211 26.7873 39.8974 27.0347 39.8146 27.4967C39.6495 28.4173 39.5373 29.357 39.476 30.309C39.4352 30.9419 39.8187 31.6169 40.3056 31.76Z" fill="white"/>
</g>
<g opacity="0.5">
<path d="M37.4657 44.3918C42.4844 59.6423 54.8717 69.227 65.1335 65.8004C75.3953 62.3738 79.6453 47.2332 74.6266 31.9827C69.6079 16.7321 57.2207 7.14712 46.9589 10.5737C36.6971 14.0003 32.4469 29.1412 37.4657 44.3918Z" fill="#B6BABE"/>
</g>
<g opacity="0.1">
<path d="M37.1432 43.367C32.5059 28.0021 37.2106 13.225 47.6509 10.3636C58.0912 7.50216 70.3137 17.64 74.9503 33.0069C79.587 48.3739 74.882 63.1511 64.4424 66.0105C54.0022 68.8719 41.7799 58.734 37.1432 43.367ZM63.2269 61.99C72.1588 59.542 76.1834 46.9011 72.2167 33.7544C68.25 20.6076 57.7946 11.9353 48.8627 14.3833C39.9308 16.8312 35.9062 29.4721 39.8729 42.6189C43.8396 55.7656 54.295 64.438 63.2269 61.99Z" fill="#6A6F76"/>
</g>
<path d="M65.7743 97.4842C62.0043 86.2637 59.7542 80.0228 60.6761 77.6863C61.6869 75.1245 63.5767 75.3224 69.3611 73.3789C75.2099 71.4137 76.5308 70.1371 78.8834 71.5687C81.0291 72.8745 83.004 79.2082 86.774 90.4284C89.3973 98.236 91.4286 103.253 89.7514 106.647C88.0741 110.04 84.5371 111.207 82.3205 111.952C80.1038 112.696 76.5801 113.902 73.194 112.21C69.8079 110.518 68.3976 105.292 65.7743 97.4842Z" fill="url(#paint7_linear_22_539)"/>
<path d="M85.4722 107.176C88.0837 106.299 89.4895 103.47 88.612 100.859L80.5089 76.7425C79.8042 74.6451 77.5326 73.5161 75.4352 74.2208L73.5738 74.8462C71.4764 75.5509 70.3474 77.8225 71.0521 79.9199L79.1549 104.036C80.0323 106.648 82.8607 108.053 85.4722 107.176Z" fill="url(#paint8_linear_22_539)"/>
<path d="M65.7743 97.4842C62.0043 86.2637 59.7542 80.0228 60.6761 77.6863C61.6869 75.1245 63.5767 75.3224 69.3611 73.3789C75.2099 71.4137 76.5308 70.1371 78.8834 71.5687C81.0291 72.8745 83.004 79.2082 86.774 90.4284C89.3973 98.236 91.4286 103.253 89.7514 106.647C88.0741 110.04 84.5371 111.207 82.3205 111.952C80.1038 112.696 76.5801 113.902 73.194 112.21C69.8079 110.518 68.3976 105.292 65.7743 97.4842Z" stroke="#0F1011" stroke-width="1.89271" stroke-miterlimit="10"/>
<g opacity="0.3">
<path d="M74.5375 71.4893C75.6316 71.1049 76.4421 70.903 77.2068 70.9697" stroke="#6F899B" stroke-width="1.89271" stroke-linecap="round" stroke-linejoin="round"/>
</g>
<path d="M70.9456 110.255C69.0139 107.699 67.7319 103.311 65.7743 97.4845C62.0042 86.2639 59.7541 80.0231 60.676 77.6866" stroke="#4B5963" stroke-width="1.89271" stroke-linecap="round" stroke-linejoin="round"/>
<path d="M75.2824 110.079C76.0696 109.815 76.4934 108.962 76.2289 108.175L66.8619 80.2973C66.5974 79.5101 65.7449 79.0864 64.9577 79.3509C64.1705 79.6154 63.7468 80.468 64.0113 81.2552L73.3781 109.133C73.6426 109.92 74.4952 110.344 75.2824 110.079Z" fill="#0E0F11"/>
<path d="M71.7023 109.684C72.8013 111.115 74.0363 113.483 77.921 113.987C77.921 113.987 72.7641 114.65 70.1857 110.806L71.7023 109.684Z" fill="#4B5963"/>
<path d="M65.1765 73.6768C65.1765 73.6768 61.9502 74.4006 60.7862 75.7172C59.8926 76.7279 59.7172 77.464 59.5664 78.2559L61.5238 78.1078C61.5238 78.1078 62.0911 75.1319 65.1765 73.6768Z" fill="#4B5963"/>
</g>
</g>
<defs>
<linearGradient id="paint0_linear_22_539" x1="52.8708" y1="8.77214" x2="55.5838" y2="71.9614" gradientUnits="userSpaceOnUse">
<stop stop-color="#8D97A2" stop-opacity="0"/>
<stop offset="0.14" stop-color="#8E98A2" stop-opacity="0.5"/>
<stop offset="0.49" stop-color="#8F99A3"/>
<stop offset="0.84" stop-color="#8D96A1" stop-opacity="0.5"/>
<stop offset="1" stop-color="#8A94A0" stop-opacity="0"/>
</linearGradient>
<linearGradient id="paint1_linear_22_539" x1="55.5246" y1="-10.8143" x2="82.2865" y2="62.2682" gradientUnits="userSpaceOnUse">
<stop stop-color="#A0BBDB"/>
<stop offset="0.25" stop-color="#CFDDEC"/>
<stop offset="0.5" stop-color="#FEFEFE"/>
<stop offset="0.75" stop-color="#A2A3A4"/>
<stop offset="1" stop-color="#46484B"/>
</linearGradient>
<linearGradient id="paint2_linear_22_539" x1="53.0451" y1="0.0964751" x2="79.6376" y2="63.129" gradientUnits="userSpaceOnUse">
<stop stop-color="#A0BBDB"/>
<stop offset="0.25" stop-color="#CFDDEC"/>
<stop offset="0.5" stop-color="#FEFEFE"/>
<stop offset="0.75" stop-color="#A2A3A4"/>
<stop offset="1" stop-color="#46484B"/>
</linearGradient>
<linearGradient id="paint3_linear_22_539" x1="52.8707" y1="8.77204" x2="55.5837" y2="71.9613" gradientUnits="userSpaceOnUse">
<stop stop-color="white"/>
<stop offset="1"/>
</linearGradient>
<linearGradient id="paint4_linear_22_539" x1="52.8707" y1="8.77192" x2="55.5837" y2="71.9611" gradientUnits="userSpaceOnUse">
<stop stop-color="#484B4E"/>
<stop offset="0.5" stop-color="#484B4E"/>
<stop offset="1" stop-color="#484B4E"/>
</linearGradient>
<linearGradient id="paint5_linear_22_539" x1="74.1816" y1="72.3246" x2="72.5693" y2="68.0011" gradientUnits="userSpaceOnUse">
<stop stop-color="white"/>
<stop offset="0.5" stop-color="#A3A5A7"/>
<stop offset="1" stop-color="#484B4E"/>
</linearGradient>
<linearGradient id="paint6_linear_22_539" x1="29.0974" y1="36.5216" x2="44.4844" y2="36.3803" gradientUnits="userSpaceOnUse">
<stop stop-color="#B3A599"/>
<stop offset="0.5" stop-color="#B3A599" stop-opacity="0.5"/>
<stop offset="1" stop-color="#B3A599" stop-opacity="0"/>
</linearGradient>
<linearGradient id="paint7_linear_22_539" x1="50.4135" y1="95.9231" x2="61.3627" y2="128.509" gradientUnits="userSpaceOnUse">
<stop stop-color="#151D2A"/>
<stop offset="0.2" stop-color="#12151D"/>
<stop offset="0.31" stop-color="#0E0E10"/>
</linearGradient>
<linearGradient id="paint8_linear_22_539" x1="84.1929" y1="87.7401" x2="74.6697" y2="90.8518" gradientUnits="userSpaceOnUse">
<stop stop-color="#8D97A2" stop-opacity="0"/>
<stop offset="0.14" stop-color="#8E98A2" stop-opacity="0.5"/>
<stop offset="0.49" stop-color="#8F99A3"/>
<stop offset="0.84" stop-color="#8D96A1" stop-opacity="0.5"/>
<stop offset="1" stop-color="#8A94A0" stop-opacity="0"/>
</linearGradient>
</defs>
</svg>
