<svg width="128" height="128" viewBox="0 0 128 128" fill="none" xmlns="http://www.w3.org/2000/svg">
<mask id="mask0_22_1420" style="mask-type:luminance" maskUnits="userSpaceOnUse" x="0" y="0" width="128" height="128">
<path d="M128 0H0V128H128V0Z" fill="white"/>
</mask>
<g mask="url(#mask0_22_1420)">
<g opacity="0.25">
<path d="M74.0579 53.0252C64.25 55.3181 53.6395 65.1216 56.3128 79.0125C58.7826 91.8461 72.0092 99.5529 82.9622 97.644C97.2804 95.1486 103.511 81.8279 100.716 69.7329C97.9222 57.638 84.4444 50.5971 74.0579 53.0252ZM73.4626 47.5729C90.4826 44.8695 102.083 54.7909 105.811 67.3095C109.457 79.5525 105.104 99.2544 84.2677 103.264C65.6322 106.851 55.9377 91.7361 54.3207 89.4023C53.2133 87.8039 51.5144 88.6571 51.5144 88.6571C51.5144 88.6571 51.3124 89.1998 50.247 90.5113C48.2493 92.9702 31.4058 95.257 24.572 96.7214C17.7382 98.1859 16.6904 88.7342 16.6904 88.7342C16.6904 88.7342 14.3613 79.557 21.8179 77.7736C24.6798 77.0892 41.6447 73.5754 43.9518 73.2495C46.1715 72.9361 47.344 73.7785 48.094 74.2499C49.1226 74.8964 50.7885 73.5292 50.9214 71.5537C51.5821 61.7358 59.52 49.7874 73.4626 47.5729Z" fill="black"/>
</g>
<g opacity="0.616436">
<path d="M76.4059 88.566C77.0955 87.7451 78.8945 86.2654 80.4438 87.3838C81.9932 88.5023 82.0412 89.1446 82.9861 89.8627C83.931 90.5809 84.8965 92.2227 83.7799 93.2236C82.0795 94.7478 81.2997 93.5017 79.5256 94.1165C77.7515 94.7312 77.0463 96.0927 75.424 95.1969C73.8017 94.3011 73.766 93.2263 74.6112 91.9188C75.4563 90.6113 75.7163 89.3868 76.4059 88.566Z" fill="#464646"/>
<path d="M76.971 81.665C77.629 81.3593 78.9861 81.4191 79.7544 83.2852C80.299 84.6077 80.0293 85.5905 79.2758 86.0266C78.5224 86.4627 77.7497 86.4155 76.9505 84.686C76.1513 82.9565 76.3129 81.9706 76.971 81.665Z" fill="#464646"/>
<path d="M83.0365 83.4967C84.1433 83.795 84.3028 84.6153 84.4815 85.636C84.6602 86.6567 84.432 87.932 83.1566 87.7038C81.8813 87.4756 81.2012 85.7274 81.4093 85.0813C81.6378 84.372 81.9297 83.1984 83.0365 83.4967Z" fill="#464646"/>
<path d="M73.4173 84.2431C74.1993 83.683 75.039 84.0068 75.6851 84.9827C76.3312 85.9586 76.0907 87.9494 75.4136 88.3378C74.7365 88.7262 73.8201 87.884 73.1519 87.0989C72.4836 86.3139 72.6354 84.8033 73.4173 84.2431Z" fill="#464646"/>
<path d="M72.0456 88.2158C72.8054 87.8465 73.133 88.0307 73.7473 88.9558C74.3616 89.8808 73.8026 91.08 72.9951 91.373C72.1875 91.6661 71.3732 91.3263 71.1565 90.471C70.9783 89.7677 71.2858 88.5852 72.0456 88.2158Z" fill="#464646"/>
</g>
<g opacity="0.981557">
<path d="M90.2048 69.0442C89.266 68.6056 87.0865 68.0413 86.1841 69.6527C85.2816 71.264 85.5011 71.8466 84.9654 72.8608C84.4297 73.8751 84.2521 75.7074 85.6384 76.1299C87.7496 76.7733 87.9256 75.3635 89.731 75.1798C91.5364 74.9961 92.7089 75.9022 93.7661 74.4563C94.8232 73.0103 94.4166 72.0538 93.1434 71.252C91.8701 70.4502 91.1435 69.4828 90.2048 69.0442Z" fill="#464646"/>
<path d="M86.8989 63.2257C86.1976 63.2258 85.0324 63.831 85.119 65.7794C85.1804 67.1604 85.8171 67.912 86.6551 67.9874C87.493 68.0628 88.1511 67.7066 88.1472 65.8653C88.1433 64.0239 87.6002 63.2256 86.8989 63.2257Z" fill="#464646"/>
<path d="M82.3282 67.3012C81.4796 68.0135 81.6739 68.7975 81.933 69.7648C82.1921 70.7322 82.9116 71.7571 83.9364 71.0377C84.9613 70.3182 84.8454 68.5089 84.3999 68.0274C83.9107 67.4988 83.1769 66.589 82.3282 67.3012Z" fill="#464646"/>
<path d="M91.0636 64.0377C90.1501 63.8652 89.546 64.491 89.3772 65.6096C89.2083 66.7281 90.23 68.3751 90.9816 68.4397C91.7333 68.5043 92.1934 67.3929 92.4594 66.4326C92.7254 65.4724 91.9772 64.2101 91.0636 64.0377Z" fill="#464646"/>
<path d="M93.8837 66.9613C93.0674 66.947 92.8552 67.242 92.6935 68.3029C92.5319 69.3639 93.5102 70.1873 94.3374 70.1153C95.1645 70.0432 95.7399 69.4137 95.5815 68.5758C95.4513 67.8868 94.7001 66.9755 93.8837 66.9613Z" fill="#464646"/>
</g>
<mask id="mask1_22_1420" style="mask-type:luminance" maskUnits="userSpaceOnUse" x="-6" y="1" width="144" height="144">
<path d="M80.9185 144.421L137.686 58.2138L51.4787 1.4459L-5.28916 87.6535L80.9185 144.421Z" fill="white"/>
</mask>
<g mask="url(#mask1_22_1420)">
<g opacity="0.1697">
<path d="M107.484 65.7893C107.464 65.6931 107.406 65.9259 107.516 65.941C99.6275 29.0516 43.2743 42.1148 50.9562 78.0363C50.9588 77.997 51.0901 77.9535 50.9993 77.8731C43.4441 42.5444 99.5564 28.7182 107.484 65.7893Z" fill="url(#paint0_linear_22_1420)"/>
</g>
<path d="M94.7764 47.0925C108.277 55.7314 112.216 73.6782 103.574 87.1769C94.935 100.675 76.9882 104.614 63.49 95.975C59.7044 93.552 56.6713 90.3984 54.4565 86.814C49.5658 78.049 50.1681 68.879 50.3248 67.9904C50.8354 63.8099 52.2686 59.674 54.692 55.8904C63.3309 42.3902 81.2777 38.451 94.7764 47.0925ZM58.475 58.3119C51.1737 69.7195 54.5032 84.8884 65.9113 92.1918C77.321 99.4927 92.4899 96.1632 99.7912 84.7556C107.094 73.3454 103.765 58.1765 92.3552 50.8757C80.9471 43.5722 65.778 46.9017 58.475 58.3119Z" fill="url(#paint1_linear_22_1420)"/>
<path d="M58.5179 58.335C51.2175 69.7412 54.5466 84.9081 65.9532 92.2106C77.3615 99.5105 92.5286 96.1816 99.829 84.7755C107.131 73.3667 103.802 58.1996 92.3937 50.8997C80.987 43.5972 65.8199 46.9262 58.5179 58.335Z" stroke="#6A6F76" stroke-width="1.61281" stroke-linecap="round" stroke-linejoin="round"/>
<g opacity="0.1">
<path d="M87.9857 73.0444C86.0437 81.9868 84.4701 89.7519 85.6877 90.7691C87.0368 91.8961 95.9446 88.636 99.3043 77.4916C102.972 65.3263 95.4844 56.3218 93.3373 56.3516C91.1685 56.3816 89.4425 66.3361 87.9857 73.0444Z" fill="white"/>
</g>
<path d="M94.7764 47.0925C108.277 55.7314 112.216 73.6782 103.574 87.1769C94.935 100.675 76.9882 104.614 63.49 95.975C59.7044 93.552 56.6713 90.3984 54.4565 86.814C49.5658 78.049 50.1681 68.879 50.3248 67.9904C50.8354 63.8099 52.2686 59.674 54.692 55.8904C63.3309 42.3902 81.2777 38.451 94.7764 47.0925ZM58.475 58.3119C51.1737 69.7195 54.5032 84.8884 65.9113 92.1918C77.321 99.4927 92.4899 96.1632 99.7912 84.7556C107.094 73.3454 103.765 58.1765 92.3552 50.8757C80.9471 43.5722 65.778 46.9017 58.475 58.3119Z" fill="url(#paint2_linear_22_1420)"/>
<path d="M63.49 95.975C76.9882 104.614 94.935 100.675 103.574 87.1769C112.216 73.6782 108.277 55.7314 94.7764 47.0925C81.2777 38.451 63.3309 42.3902 54.692 55.8904M63.49 95.975C59.7044 93.552 56.6713 90.3984 54.4565 86.814M63.49 95.975C72.3679 101.657 83.1698 101.898 91.9825 97.5571M54.4565 86.814C49.2176 77.1441 50.1681 68.879 50.3248 67.9903M54.4565 86.814C49.727 79.7668 50.1681 68.879 50.3248 67.9903M50.3248 67.9903C50.8354 63.8099 52.2686 59.674 54.692 55.8904M54.692 55.8904C61.858 44.6917 75.4285 40.0721 87.5523 43.7547" stroke="#6498BF" stroke-width="1.61281" stroke-miterlimit="10"/>
<path d="M91.9827 97.557C83.17 101.898 72.3681 101.657 63.4902 95.9749C59.7046 93.5519 52.4979 87.4206 50.74 77.1461" stroke="#939098" stroke-width="1.61281" stroke-linecap="round" stroke-linejoin="round"/>
<path d="M58.5179 58.335C51.2175 69.7412 54.5466 84.9081 65.9532 92.2106C77.3615 99.5105 92.5286 96.1816 99.829 84.7755C107.131 73.3667 103.802 58.1996 92.3937 50.8997C80.987 43.5972 65.8199 46.9262 58.5179 58.335Z" stroke="#6A6F76" stroke-width="1.61281" stroke-linecap="round" stroke-linejoin="round"/>
<g opacity="0.1">
<path d="M87.9857 73.0444C86.0437 81.9868 84.4701 89.7519 85.6877 90.7691C87.0368 91.8961 95.9446 88.636 99.3043 77.4916C102.972 65.3263 95.4844 56.3218 93.3373 56.3516C91.1685 56.3816 89.4425 66.3361 87.9857 73.0444Z" fill="white"/>
</g>
<path d="M89.3381 49.2331C78.4127 44.2404 65.1963 47.9143 58.5259 58.3217C51.2183 69.7233 54.5379 84.8925 65.9399 92.2022C69.5483 94.5143 73.5335 95.7625 77.5275 96.0274" stroke="#98A5BA" stroke-width="1.61281" stroke-linecap="round" stroke-linejoin="round"/>
<path d="M50.7395 77.16C48.6998 66.9797 52.2756 59.657 54.7014 55.8749C61.8744 44.6807 75.4479 40.0698 87.5693 43.7598" stroke="#9A8E80" stroke-width="1.61281" stroke-linecap="round" stroke-linejoin="round"/>
<g opacity="0.01">
<path d="M107.416 65.4712C107.437 65.5697 107.317 65.5182 107.413 65.458C115.574 103.618 58.9296 115.32 50.8532 77.5535C50.8719 77.5891 50.9812 77.4369 50.9303 77.55C59.0041 115.304 115.532 103.421 107.416 65.4712Z" fill="url(#paint3_linear_22_1420)"/>
<path d="M107.79 67.4821C107.686 66.8201 107.561 66.1497 107.416 65.4712C107.437 65.5697 107.317 65.5182 107.413 65.458C115.574 103.618 58.9296 115.32 50.8532 77.5535C50.8719 77.5891 50.9812 77.4369 50.9303 77.55C51.7371 81.3224 53.0277 84.5993 54.6892 87.404" stroke="#70757B" stroke-width="1.61281" stroke-linecap="round" stroke-linejoin="round"/>
</g>
<path d="M54.4564 86.8138C53.958 86.0689 52.0335 84.162 48.8563 85.1872L45.9212 71.8146C49.1611 71.4545 50.1681 68.8788 50.3248 67.9901C50.8353 63.8097 56.6712 90.3982 54.4564 86.8138Z" fill="url(#paint4_linear_22_1420)"/>
<path d="M54.4565 86.814C53.9581 86.0691 52.0336 84.1622 48.8564 85.1874" stroke="#939098" stroke-width="1.61281" stroke-linecap="round" stroke-linejoin="round"/>
<path d="M45.9213 71.8146C49.1612 71.4545 50.1681 68.8788 50.3249 67.9902" stroke="#9A8E80" stroke-width="1.61281" stroke-linecap="round" stroke-linejoin="round"/>
<path d="M50.7417 76.3944L49.1945 76.7341C48.1471 76.9641 47.4843 77.9995 47.7143 79.0469L48.568 82.9366C48.7693 83.8539 49.599 84.4992 50.5372 84.4596C52.7818 84.3649 54.1565 85.7637 54.5677 86.3765C54.7409 86.6584 54.9193 86.935 55.1035 87.2104L53.0545 77.8748C52.8245 76.8274 51.789 76.1644 50.7417 76.3944Z" fill="url(#paint5_linear_22_1420)"/>
<g opacity="0.7">
<path d="M53.0713 85.4668C52.4345 83.8244 51.2332 82.6867 48.5107 83.6121" stroke="#E2E9EC" stroke-width="1.61281" stroke-linecap="round" stroke-linejoin="round"/>
</g>
<path d="M63.4902 95.9751C59.7046 93.5521 56.6716 90.3985 54.4568 86.8141C53.9583 86.0692 52.0338 84.1623 48.8566 85.1875" stroke="#4B4D4F" stroke-width="1.61281" stroke-linecap="round" stroke-linejoin="round"/>
<path d="M45.9216 71.8145C49.1614 71.4544 50.1684 68.8787 50.3251 67.9901C50.8357 63.8096 52.2688 59.6737 54.6923 55.8901" stroke="#4B4D4F" stroke-width="1.61281" stroke-linecap="round" stroke-linejoin="round"/>
<g opacity="0.2">
<path d="M79.7837 88.4192L78.8933 88.4529C78.7457 88.4585 78.6204 88.5628 78.5879 88.7071L78.4956 89.1179C78.4529 89.3074 78.5847 89.4901 78.7777 89.5134C79.0837 89.5502 79.3906 89.5645 79.6962 89.5571C79.8459 89.5534 79.9738 89.4479 80.0063 89.3016L80.1142 88.8152C80.1603 88.6068 79.997 88.4111 79.7837 88.4192Z" fill="white"/>
</g>
<g opacity="0.2">
<path d="M78.5694 85.7431L78.443 86.3045C78.3571 86.6872 78.659 87.0465 79.0508 87.0276L80.6704 86.9497C80.9378 86.9368 81.1636 86.7465 81.2216 86.4853L81.376 85.7894C81.4651 85.3877 81.1285 85.0194 80.7204 85.072L79.0727 85.2846C78.8253 85.3165 78.6241 85.4997 78.5694 85.7431Z" fill="white"/>
</g>
<g opacity="0.2">
<path d="M81.525 68.4386L80.7332 74.8902C80.5915 75.5204 81.0939 76.1102 81.7386 76.0707L82.6022 76.018C83.0338 75.9914 83.3959 75.6823 83.4895 75.26L85.9853 68.8753C86.1191 68.2719 85.662 67.699 85.044 67.6957L82.4764 67.6816C82.0208 67.679 81.625 67.9942 81.525 68.4386Z" fill="white"/>
</g>
<g opacity="0.2">
<path d="M84.8318 53.7236L82.3982 64.5514C82.2645 65.1463 82.7068 65.7156 83.3163 65.7333L85.8589 65.807C86.3238 65.8205 86.7329 65.5017 86.8337 65.0477L89.0394 55.1035C89.136 54.6683 88.9238 54.2218 88.5245 54.0235C87.7288 53.6284 86.916 53.2936 86.0925 53.0182C85.545 52.8351 84.9585 53.1603 84.8318 53.7236Z" fill="white"/>
</g>
<g opacity="0.5">
<path d="M73.9161 47.6007C60.6868 50.5043 52.3166 63.5825 55.2202 76.8118C58.1237 90.0411 71.2018 98.4114 84.431 95.5078C97.6603 92.6043 106.031 79.5262 103.127 66.2969C100.224 53.0676 87.1454 44.6972 73.9161 47.6007Z" fill="#B6BABE"/>
</g>
<g opacity="0.1">
<path d="M74.805 47.4235C88.131 45.0089 100.892 53.8569 103.305 67.1846C105.718 80.5123 96.8704 93.2732 83.5427 95.6865C70.2149 98.0998 57.4542 89.2517 55.0426 75.9252C52.6293 62.5975 61.4773 49.8368 74.805 47.4235ZM58.5296 75.2908C60.5942 86.693 71.5102 94.2619 82.9123 92.1972C94.3145 90.1326 101.883 79.2166 99.8187 67.8145C97.7541 56.4123 86.8381 48.8435 75.436 50.9081C64.0338 52.9727 56.465 63.8887 58.5296 75.2908Z" fill="#6A6F76"/>
</g>
<path d="M28.2375 73.0367C37.9813 70.8524 43.4142 69.509 45.2942 70.4865C47.3555 71.5582 47.0246 73.1265 48.1506 78.1497C49.2892 83.2287 50.2451 84.4484 48.8386 86.2975C47.5557 87.984 42.0689 89.0884 32.3254 91.2726C25.5453 92.7925 21.1583 94.0591 18.4571 92.3557C15.7561 90.6522 15.0859 87.5826 14.6544 85.6577C14.2229 83.7328 13.5186 80.6709 15.234 77.9774C16.9493 75.2838 21.4574 74.5566 28.2375 73.0367Z" fill="url(#paint6_linear_22_1420)"/>
<path d="M18.3868 88.7191C18.8951 90.9869 21.1457 92.4132 23.4135 91.9048L44.3558 87.2101C46.1771 86.8018 47.3227 84.9943 46.9144 83.1729L46.552 81.5565C46.1437 79.7351 44.3362 78.5896 42.5149 78.9979L21.5725 83.6923C19.3047 84.2007 17.8784 86.4513 18.3868 88.7191Z" fill="url(#paint7_linear_22_1420)"/>
<path d="M28.2375 73.0367C37.9813 70.8524 43.4142 69.509 45.2942 70.4865C47.3555 71.5582 47.0246 73.1265 48.1506 78.1497C49.2892 83.2287 50.2451 84.4484 48.8386 86.2975C47.5557 87.984 42.0689 89.0884 32.3254 91.2726C25.5453 92.7925 21.1583 94.0591 18.4571 92.3557C15.7561 90.6522 15.0859 87.5826 14.6544 85.6577C14.2229 83.7328 13.5186 80.6709 15.234 77.9774C16.9493 75.2838 21.4574 74.5566 28.2375 73.0367Z" stroke="#0F1011" stroke-width="1.59668" stroke-miterlimit="10"/>
<g opacity="0.3">
<path d="M49.2848 82.6578C49.5118 83.6093 49.6105 84.307 49.4878 84.9429" stroke="#6F899B" stroke-width="1.59668" stroke-linecap="round" stroke-linejoin="round"/>
</g>
<path d="M17.0709 76.2614C19.3838 74.8636 23.1777 74.1708 28.2372 73.0366C37.9811 70.8523 43.4139 69.5089 45.294 70.4863" stroke="#4B5963" stroke-width="1.59668" stroke-linecap="round" stroke-linejoin="round"/>
<path d="M16.8396 79.9158C16.9928 80.5994 17.6713 81.0294 18.3549 80.8762L42.5637 75.4492C43.2473 75.2959 43.6772 74.6176 43.524 73.934C43.3707 73.2504 42.6924 72.8205 42.0088 72.9737L17.7998 78.4006C17.1162 78.5538 16.6863 79.2322 16.8396 79.9158Z" fill="#0E0F11"/>
<path d="M17.4835 76.9464C16.1871 77.7437 14.0925 78.5733 13.3311 81.7889C13.3311 81.7889 13.224 77.404 16.6748 75.576L17.4835 76.9464Z" fill="#4B5963"/>
<path d="M48.2661 74.6123C48.2661 74.6123 47.9403 71.842 46.9372 70.7505C46.167 69.9125 45.5647 69.7011 44.9134 69.5055L44.8669 71.1608C44.8669 71.1608 47.3144 71.8964 48.2661 74.6123Z" fill="#4B5963"/>
</g>
</g>
<defs>
<linearGradient id="paint0_linear_22_1420" x1="103.799" y1="69.9507" x2="50.5422" y2="66.7133" gradientUnits="userSpaceOnUse">
<stop stop-color="#8D97A2" stop-opacity="0"/>
<stop offset="0.14" stop-color="#8E98A2" stop-opacity="0.5"/>
<stop offset="0.49" stop-color="#8F99A3"/>
<stop offset="0.84" stop-color="#8D96A1" stop-opacity="0.5"/>
<stop offset="1" stop-color="#8A94A0" stop-opacity="0"/>
</linearGradient>
<linearGradient id="paint1_linear_22_1420" x1="103.799" y1="69.9507" x2="50.5422" y2="66.7133" gradientUnits="userSpaceOnUse">
<stop stop-color="#8D97A2" stop-opacity="0"/>
<stop offset="0.14" stop-color="#8E98A2" stop-opacity="0.5"/>
<stop offset="0.49" stop-color="#8F99A3"/>
<stop offset="0.84" stop-color="#8D96A1" stop-opacity="0.5"/>
<stop offset="1" stop-color="#8A94A0" stop-opacity="0"/>
</linearGradient>
<linearGradient id="paint2_linear_22_1420" x1="119.775" y1="72.8238" x2="56.1181" y2="88.9019" gradientUnits="userSpaceOnUse">
<stop stop-color="#A0BBDB"/>
<stop offset="0.25" stop-color="#CFDDEC"/>
<stop offset="0.5" stop-color="#FEFEFE"/>
<stop offset="0.75" stop-color="#A2A3A4"/>
<stop offset="1" stop-color="#46484B"/>
</linearGradient>
<linearGradient id="paint3_linear_22_1420" x1="103.799" y1="69.9506" x2="50.5423" y2="66.7131" gradientUnits="userSpaceOnUse">
<stop stop-color="white"/>
<stop offset="1"/>
</linearGradient>
<linearGradient id="paint4_linear_22_1420" x1="103.799" y1="69.9505" x2="50.5421" y2="66.7131" gradientUnits="userSpaceOnUse">
<stop stop-color="#484B4E"/>
<stop offset="0.5" stop-color="#484B4E"/>
<stop offset="1" stop-color="#484B4E"/>
</linearGradient>
<linearGradient id="paint5_linear_22_1420" x1="48.6143" y1="82.2866" x2="52.3827" y2="81.3111" gradientUnits="userSpaceOnUse">
<stop stop-color="white"/>
<stop offset="0.5" stop-color="#A3A5A7"/>
<stop offset="1" stop-color="#484B4E"/>
</linearGradient>
<linearGradient id="paint6_linear_22_1420" x1="30.8877" y1="60.2841" x2="2.5902" y2="66.6278" gradientUnits="userSpaceOnUse">
<stop stop-color="#151D2A"/>
<stop offset="0.2" stop-color="#12151D"/>
<stop offset="0.31" stop-color="#0E0E10"/>
</linearGradient>
<linearGradient id="paint7_linear_22_1420" x1="34.8065" y1="89.3416" x2="33.0266" y2="81.0794" gradientUnits="userSpaceOnUse">
<stop stop-color="#8D97A2" stop-opacity="0"/>
<stop offset="0.14" stop-color="#8E98A2" stop-opacity="0.5"/>
<stop offset="0.49" stop-color="#8F99A3"/>
<stop offset="0.84" stop-color="#8D96A1" stop-opacity="0.5"/>
<stop offset="1" stop-color="#8A94A0" stop-opacity="0"/>
</linearGradient>
</defs>
</svg>
