<svg width="25" height="24" viewBox="0 0 25 24" fill="none" xmlns="http://www.w3.org/2000/svg">
<path d="M3.82983 6.74985H14.4587C14.6139 7.18837 14.9012 7.56801 15.2811 7.83652C15.6609 8.10503 16.1147 8.24921 16.5798 8.24921C17.045 8.24921 17.4987 8.10503 17.8786 7.83652C18.2584 7.56801 18.5457 7.18837 18.7009 6.74985H21.8298C22.0287 6.74985 22.2195 6.67083 22.3602 6.53018C22.5008 6.38953 22.5798 6.19876 22.5798 5.99985C22.5798 5.80094 22.5008 5.61017 22.3602 5.46952C22.2195 5.32887 22.0287 5.24985 21.8298 5.24985H18.7009C18.5457 4.81133 18.2584 4.43168 17.8786 4.16317C17.4987 3.89467 17.045 3.75049 16.5798 3.75049C16.1147 3.75049 15.6609 3.89467 15.2811 4.16317C14.9012 4.43168 14.6139 4.81133 14.4587 5.24985H3.82983C3.63092 5.24985 3.44016 5.32887 3.2995 5.46952C3.15885 5.61017 3.07983 5.80094 3.07983 5.99985C3.07983 6.19876 3.15885 6.38953 3.2995 6.53018C3.44016 6.67083 3.63092 6.74985 3.82983 6.74985ZM21.8298 17.2498H18.7009C18.5457 16.8113 18.2584 16.4317 17.8786 16.1632C17.4987 15.8947 17.045 15.7505 16.5798 15.7505C16.1147 15.7505 15.6609 15.8947 15.2811 16.1632C14.9012 16.4317 14.6139 16.8113 14.4587 17.2498H3.82983C3.63092 17.2498 3.44016 17.3289 3.2995 17.4695C3.15885 17.6102 3.07983 17.8009 3.07983 17.9998C3.07983 18.1988 3.15885 18.3895 3.2995 18.5302C3.44016 18.6708 3.63092 18.7498 3.82983 18.7498H14.4587C14.6139 19.1884 14.9012 19.568 15.2811 19.8365C15.6609 20.105 16.1147 20.2492 16.5798 20.2492C17.045 20.2492 17.4987 20.105 17.8786 19.8365C18.2584 19.568 18.5457 19.1884 18.7009 18.7498H21.8298C22.0287 18.7498 22.2195 18.6708 22.3602 18.5302C22.5008 18.3895 22.5798 18.1988 22.5798 17.9998C22.5798 17.8009 22.5008 17.6102 22.3602 17.4695C22.2195 17.3289 22.0287 17.2498 21.8298 17.2498ZM21.8298 11.2498H11.2009C11.0457 10.8113 10.7584 10.4317 10.3786 10.1632C9.99874 9.89467 9.54501 9.75049 9.07983 9.75049C8.61466 9.75049 8.16093 9.89467 7.78107 10.1632C7.40122 10.4317 7.11393 10.8113 6.95874 11.2498H3.82983C3.63092 11.2498 3.44016 11.3289 3.2995 11.4695C3.15885 11.6102 3.07983 11.8009 3.07983 11.9998C3.07983 12.1988 3.15885 12.3895 3.2995 12.5302C3.44016 12.6708 3.63092 12.7498 3.82983 12.7498H6.95874C7.11393 13.1884 7.40122 13.568 7.78107 13.8365C8.16093 14.105 8.61466 14.2492 9.07983 14.2492C9.54501 14.2492 9.99874 14.105 10.3786 13.8365C10.7584 13.568 11.0457 13.1884 11.2009 12.7498H21.8298C22.0287 12.7498 22.2195 12.6708 22.3602 12.5302C22.5008 12.3895 22.5798 12.1988 22.5798 11.9998C22.5798 11.8009 22.5008 11.6102 22.3602 11.4695C22.2195 11.3289 22.0287 11.2498 21.8298 11.2498Z" fill="white"/>
</svg>
