<svg width="28" height="28" viewBox="0 0 28 28" fill="none" xmlns="http://www.w3.org/2000/svg">
<path fill-rule="evenodd" clip-rule="evenodd" d="M16.5481 20.6583C15.9146 21.7597 15.5973 22.3103 15.2356 22.5728C14.8766 22.834 14.4441 22.9747 14.0001 22.9747C13.5561 22.9747 13.1236 22.834 12.7646 22.5728C12.4029 22.3103 12.0856 21.7597 11.4521 20.6583L6.44128 11.955C5.56394 10.4302 5.12527 9.66833 5.06111 9.05233C4.99734 8.4401 5.12889 7.82339 5.43695 7.29048C5.745 6.75757 6.21375 6.33579 6.77611 6.0855C7.34194 5.8335 8.22161 5.8335 9.97977 5.8335H18.0204C19.7786 5.8335 20.6571 5.8335 21.2241 6.0855C21.7865 6.33579 22.2552 6.75757 22.5633 7.29048C22.8713 7.82339 23.0029 8.4401 22.9391 9.05233C22.8749 9.66833 22.4374 10.4302 21.5589 11.9538L16.5481 20.6572V20.6583ZM12.9501 19.0635L7.65461 9.8935C7.37344 9.40583 7.23228 9.162 7.21128 8.96483C7.19051 8.76874 7.23239 8.57111 7.3309 8.40029C7.42941 8.22947 7.57949 8.09424 7.75961 8.014C7.94161 7.9335 8.22277 7.9335 8.78627 7.9335H12.9501V19.0635ZM15.0501 19.0635L20.3456 9.89233C20.6268 9.40466 20.7679 9.16083 20.7889 8.96366C20.8097 8.76757 20.7678 8.56994 20.6693 8.39912C20.5708 8.2283 20.4207 8.09307 20.2406 8.01283C20.0586 7.93233 19.7774 7.93233 19.2139 7.93233H15.0501V19.0635Z" fill="white"/>
</svg>
