<svg width="35" height="36" viewBox="0 0 35 36" fill="none" xmlns="http://www.w3.org/2000/svg">
<path d="M17.5 35.5C27.165 35.5 35 27.665 35 18C35 8.335 27.165 0.5 17.5 0.5C7.835 0.5 0 8.335 0 18C0 27.665 7.835 35.5 17.5 35.5Z" fill="#0098EA"/>
<path d="M23.475 10.2676H11.525C9.32754 10.2676 7.93441 12.6376 9.04004 14.5538L16.4157 27.3382C16.8969 28.1726 18.1032 28.1726 18.5844 27.3382L25.9619 14.5538C27.0663 12.6413 25.6732 10.2676 23.4775 10.2676H23.475ZM16.4094 23.5045L14.8032 20.3957L10.9269 13.4632C10.6713 13.0195 10.9869 12.4507 11.5225 12.4507H16.4075V23.5063L16.4094 23.5045ZM24.0688 13.462L20.1938 20.397L18.5875 23.5045V12.4495H23.4732C24.0088 12.4495 24.3244 13.0182 24.0688 13.462Z" fill="white"/>
</svg>
