<svg width="18" height="18" viewBox="0 0 18 18" fill="none" xmlns="http://www.w3.org/2000/svg">
<path d="M8.625 1.5C5.1075 1.5 2.25 4.3575 2.25 7.875C2.25 11.3925 5.1075 14.25 8.625 14.25H9V16.5C12.645 14.745 15 11.25 15 7.875C15 4.3575 12.1425 1.5 8.625 1.5ZM9.375 12.375H7.875V10.875H9.375V12.375ZM9.375 9.75H7.875C7.875 7.3125 10.125 7.5 10.125 6C10.125 5.175 9.45 4.5 8.625 4.5C7.8 4.5 7.125 5.175 7.125 6H5.625C5.625 4.3425 6.9675 3 8.625 3C10.2825 3 11.625 4.3425 11.625 6C11.625 7.875 9.375 8.0625 9.375 9.75Z" fill="white"/>
</svg>
