<svg width="25" height="24" viewBox="0 0 25 24" fill="none" xmlns="http://www.w3.org/2000/svg">
<path d="M16.3603 12C15.3966 12 14.4647 11.5697 13.7353 10.7888C13.0261 10.027 12.593 9.01125 12.5165 7.92938C12.435 6.77531 12.787 5.71406 13.5075 4.94063C14.228 4.16719 15.2353 3.75 16.3603 3.75C17.4773 3.75 18.4875 4.17469 19.2056 4.94625C19.9308 5.72531 20.2837 6.78469 20.2022 7.92891C20.1239 9.01219 19.6912 10.0275 18.9834 10.7883C18.2559 11.5697 17.3245 12 16.3603 12ZM22.5398 20.25H10.1812C9.98254 20.2511 9.78625 20.2065 9.60746 20.1198C9.42868 20.0331 9.27217 19.9065 9.14999 19.7498C9.02038 19.58 8.93087 19.383 8.88818 19.1736C8.84548 18.9643 8.85069 18.748 8.90342 18.5409C9.29811 16.9561 10.2759 15.6417 11.7309 14.7403C13.0223 13.9406 14.6662 13.5 16.3603 13.5C18.0876 13.5 19.6884 13.9219 20.9873 14.7211C22.4456 15.6178 23.4248 16.9397 23.8176 18.5438C23.8697 18.751 23.8744 18.9673 23.8312 19.1765C23.788 19.3857 23.6981 19.5825 23.5683 19.7522C23.4462 19.9082 23.2901 20.0341 23.1118 20.1204C22.9335 20.2067 22.7379 20.251 22.5398 20.25ZM7.50092 12.1875C5.85139 12.1875 4.40108 10.6538 4.26655 8.76891C4.19999 7.80328 4.50092 6.91031 5.1103 6.25547C5.71311 5.60719 6.56342 5.25 7.50092 5.25C8.43842 5.25 9.28217 5.60906 9.88827 6.26109C10.5023 6.92109 10.8023 7.81219 10.732 8.76984C10.5975 10.6542 9.14764 12.1875 7.50092 12.1875ZM10.5787 13.6617C9.7542 13.2586 8.68405 13.057 7.50139 13.057C6.12045 13.057 4.77936 13.417 3.72467 14.0705C2.52889 14.8125 1.72452 15.893 1.39967 17.1975C1.35214 17.3851 1.34764 17.5811 1.38652 17.7707C1.4254 17.9603 1.50666 18.1387 1.6242 18.2925C1.73574 18.4357 1.87863 18.5514 2.04189 18.6307C2.20515 18.71 2.38442 18.7508 2.56592 18.75H7.76905C7.85687 18.75 7.9419 18.7192 8.00932 18.6629C8.07673 18.6066 8.12226 18.5284 8.13795 18.442C8.14311 18.4125 8.14967 18.383 8.15717 18.3539C8.55467 16.7573 9.48608 15.4083 10.8623 14.4248C10.9129 14.3884 10.9537 14.3398 10.9808 14.2836C11.0079 14.2274 11.0206 14.1653 11.0176 14.103C11.0147 14.0407 10.9963 13.9801 10.964 13.9267C10.9317 13.8733 10.8866 13.8288 10.8328 13.7972C10.7592 13.7541 10.6748 13.7086 10.5787 13.6617Z" fill="#8774E1"/>
</svg>
