<svg width="25" height="24" viewBox="0 0 25 24" fill="none" xmlns="http://www.w3.org/2000/svg">
<path d="M15.0199 4.5C15.0199 6.4695 14.5639 8.262 13.8199 9.6C13.5046 9.36338 13.1456 9.19124 12.7637 9.09343C12.3817 8.99563 11.9842 8.97407 11.5939 9.03C11.1739 7.557 10.2289 5.97 8.83695 4.5765C8.60104 4.33934 8.35533 4.11214 8.10045 3.8955C9.3227 3.30527 10.6626 2.99913 12.0199 3C13.0564 3 14.0524 3.1755 14.9794 3.498C15.0064 3.827 15.0199 4.161 15.0199 4.5ZM15.0199 12C15.0199 12.11 15.0139 12.2185 15.0019 12.3255C16.5289 12.297 18.3019 11.796 19.9984 10.8165C20.2909 10.6481 20.5762 10.4674 20.8534 10.275C20.3973 7.93654 19.0326 5.87433 17.0584 4.5405C16.9976 4.86304 16.9251 5.18325 16.8409 5.5005C16.3309 7.404 15.4249 9.0195 14.3569 10.119C14.7724 10.6335 15.0199 11.289 15.0199 12ZM14.8144 13.092C14.6702 13.4616 14.4541 13.799 14.1786 14.0845C13.9031 14.3701 13.5737 14.5981 13.2094 14.7555C13.9969 16.0605 15.3169 17.343 17.0119 18.321C17.3119 18.495 17.6144 18.6535 17.9194 18.7965C18.8127 18.0214 19.5445 17.0778 20.0729 16.0197C20.6013 14.9616 20.916 13.8098 20.9989 12.63C20.6879 12.74 20.3674 12.8395 20.0374 12.9285C18.1414 13.437 16.2979 13.4625 14.8144 13.0935V13.092ZM12.0199 15C11.3449 15 10.7209 14.7765 10.2199 14.4C9.47895 15.735 9.02595 17.523 9.02595 19.4865C9.02595 19.8325 9.03945 20.1715 9.06645 20.5035C10.0163 20.8328 11.0146 21.0006 12.0199 21C13.4299 21 14.7649 20.676 15.9544 20.097C15.6964 19.8786 15.4477 19.6494 15.2089 19.41C13.8214 18.021 12.8764 16.4385 12.4549 14.97C12.3139 14.99 12.1689 15 12.0199 15ZM9.01995 12C9.01995 11.88 9.02695 11.7605 9.04095 11.6415C7.51095 11.667 5.73345 12.168 4.03095 13.152C3.73953 13.3195 3.45528 13.4991 3.17895 13.6905C3.40095 14.8521 3.84972 15.9586 4.49961 16.9467C5.14949 17.9348 5.98774 18.7851 6.96645 19.449C7.02674 19.1195 7.10081 18.7928 7.18845 18.4695C7.69844 16.569 8.59845 14.9565 9.66345 13.857C9.24652 13.3278 9.01985 12.6737 9.01995 12ZM3.99945 11.052C5.89995 10.542 7.74645 10.5195 9.23145 10.8915C9.52545 10.1505 10.1059 9.5565 10.8364 9.2415C10.0504 7.9305 8.72745 6.642 7.02495 5.6595C6.73462 5.49111 6.43736 5.33497 6.13395 5.1915C5.23959 5.96482 4.50636 6.90678 3.97617 7.96357C3.44597 9.02035 3.1292 10.1713 3.04395 11.3505C3.35295 11.2405 3.67145 11.141 3.99945 11.052ZM12.0199 13.5C12.4178 13.5 12.7993 13.342 13.0806 13.0607C13.3619 12.7794 13.5199 12.3978 13.5199 12C13.5199 11.6022 13.3619 11.2206 13.0806 10.9393C12.7993 10.658 12.4178 10.5 12.0199 10.5C11.6221 10.5 11.2406 10.658 10.9593 10.9393C10.678 11.2206 10.5199 11.6022 10.5199 12C10.5199 12.3978 10.678 12.7794 10.9593 13.0607C11.2406 13.342 11.6221 13.5 12.0199 13.5Z" fill="white"/>
<path d="M12.02 22.5C9.23525 22.5 6.56453 21.3938 4.5954 19.4246C2.62627 17.4555 1.52002 14.7848 1.52002 12C1.52002 9.21523 2.62627 6.54451 4.5954 4.57538C6.56453 2.60625 9.23525 1.5 12.02 1.5C14.8048 1.5 17.4755 2.60625 19.4446 4.57538C21.4138 6.54451 22.52 9.21523 22.52 12C22.52 14.7848 21.4138 17.4555 19.4446 19.4246C17.4755 21.3938 14.8048 22.5 12.02 22.5ZM12.02 24C15.2026 24 18.2549 22.7357 20.5053 20.4853C22.7557 18.2348 24.02 15.1826 24.02 12C24.02 8.8174 22.7557 5.76516 20.5053 3.51472C18.2549 1.26428 15.2026 0 12.02 0C8.83742 0 5.78517 1.26428 3.53474 3.51472C1.2843 5.76516 0.0200195 8.8174 0.0200195 12C0.0200195 15.1826 1.2843 18.2348 3.53474 20.4853C5.78517 22.7357 8.83742 24 12.02 24Z" fill="white"/>
</svg>
