<svg width="49" height="48" viewBox="0 0 49 48" fill="none" xmlns="http://www.w3.org/2000/svg">
<path d="M34.5172 41.9902L14.5172 42.0092C10.1172 42.0132 6.51424 38.4172 6.50924 34.0172L6.49024 14.0172C6.48624 9.61724 10.0822 6.01424 14.4822 6.00924L34.4822 5.99024C38.8822 5.98624 42.4852 9.58224 42.4902 13.9822L42.5092 33.9822C42.5142 38.3832 38.9172 41.9862 34.5172 41.9902Z" fill="url(#paint0_radial_22_2279)"/>
<path d="M34.5172 41.9902L14.5172 42.0092C10.1172 42.0132 6.51424 38.4172 6.50924 34.0172L6.49024 14.0172C6.48624 9.61724 10.0822 6.01424 14.4822 6.00924L34.4822 5.99024C38.8822 5.98624 42.4852 9.58224 42.4902 13.9822L42.5092 33.9822C42.5142 38.3832 38.9172 41.9862 34.5172 41.9902Z" fill="url(#paint1_radial_22_2279)"/>
<path d="M24.5 31C20.641 31 17.5 27.86 17.5 24C17.5 20.14 20.641 17 24.5 17C28.359 17 31.5 20.14 31.5 24C31.5 27.86 28.359 31 24.5 31ZM24.5 19C21.743 19 19.5 21.243 19.5 24C19.5 26.757 21.743 29 24.5 29C27.257 29 29.5 26.757 29.5 24C29.5 21.243 27.257 19 24.5 19Z" fill="white"/>
<path d="M32 18C32.8284 18 33.5 17.3284 33.5 16.5C33.5 15.6716 32.8284 15 32 15C31.1716 15 30.5 15.6716 30.5 16.5C30.5 17.3284 31.1716 18 32 18Z" fill="white"/>
<path d="M30.5 37H18.5C14.641 37 11.5 33.86 11.5 30V18C11.5 14.14 14.641 11 18.5 11H30.5C34.359 11 37.5 14.14 37.5 18V30C37.5 33.86 34.359 37 30.5 37ZM18.5 13C15.743 13 13.5 15.243 13.5 18V30C13.5 32.757 15.743 35 18.5 35H30.5C33.257 35 35.5 32.757 35.5 30V18C35.5 15.243 33.257 13 30.5 13H18.5Z" fill="white"/>
<defs>
<radialGradient id="paint0_radial_22_2279" cx="0" cy="0" r="1" gradientUnits="userSpaceOnUse" gradientTransform="translate(19.8802 42.0352) scale(44.899 44.899)">
<stop stop-color="#FFDD55"/>
<stop offset="0.328" stop-color="#FF543F"/>
<stop offset="0.348" stop-color="#FC5245"/>
<stop offset="0.504" stop-color="#E64771"/>
<stop offset="0.643" stop-color="#D53E91"/>
<stop offset="0.761" stop-color="#CC39A4"/>
<stop offset="0.841" stop-color="#C837AB"/>
</radialGradient>
<radialGradient id="paint1_radial_22_2279" cx="0" cy="0" r="1" gradientUnits="userSpaceOnUse" gradientTransform="translate(12.2862 5.54054) scale(29.813 19.8644)">
<stop stop-color="#4168C9"/>
<stop offset="0.999" stop-color="#4168C9" stop-opacity="0"/>
</radialGradient>
</defs>
</svg>
