<svg width="16" height="16" viewBox="0 0 16 16" fill="none" xmlns="http://www.w3.org/2000/svg">
<path d="M6.4 10.0001H6.3995C6.3995 9.5956 6.433 9.78185 4.27325 5.46235C3.832 4.5801 2.5685 4.57835 2.1265 5.46235C-0.0515001 9.81885 0.0005 9.60835 0.0005 10.0001H0C0 11.1046 1.43275 12.0001 3.2 12.0001C4.96725 12.0001 6.4 11.1046 6.4 10.0001ZM3.2 6.0001L5 9.6001H1.4L3.2 6.0001ZM15.9995 10.0001C15.9995 9.5956 16.033 9.78185 13.8733 5.46235C13.432 4.5801 12.1685 4.57835 11.7265 5.46235C9.5485 9.81885 9.6005 9.60835 9.6005 10.0001H9.6C9.6 11.1046 11.0328 12.0001 12.8 12.0001C14.5673 12.0001 16 11.1046 16 10.0001H15.9995ZM11 9.6001L12.8 6.0001L14.6 9.6001H11ZM13.2 12.8001H8.8V5.43135C9.38775 5.1741 9.829 4.64435 9.95975 4.0001H13.2C13.421 4.0001 13.6 3.8211 13.6 3.6001V2.8001C13.6 2.5791 13.421 2.4001 13.2 2.4001H9.591C9.226 1.9171 8.65225 1.6001 8 1.6001C7.34775 1.6001 6.774 1.9171 6.409 2.4001H2.8C2.579 2.4001 2.4 2.5791 2.4 2.8001V3.6001C2.4 3.8211 2.579 4.0001 2.8 4.0001H6.04025C6.171 4.6441 6.612 5.1741 7.2 5.43135V12.8001H2.8C2.579 12.8001 2.4 12.9791 2.4 13.2001V14.0001C2.4 14.2211 2.579 14.4001 2.8 14.4001H13.2C13.421 14.4001 13.6 14.2211 13.6 14.0001V13.2001C13.6 12.9791 13.421 12.8001 13.2 12.8001Z" fill="white"/>
</svg>
