<svg width="21" height="20" viewBox="0 0 21 20" fill="none" xmlns="http://www.w3.org/2000/svg">
<path d="M2.33252 1.875C1.81299 1.875 1.39502 2.29297 1.39502 2.8125V4.6875C1.39502 5.20703 1.81299 5.625 2.33252 5.625H4.20752C4.72705 5.625 5.14502 5.20703 5.14502 4.6875V2.8125C5.14502 2.29297 4.72705 1.875 4.20752 1.875H2.33252ZM8.27002 2.5C7.57861 2.5 7.02002 3.05859 7.02002 3.75C7.02002 4.44141 7.57861 5 8.27002 5H19.52C20.2114 5 20.77 4.44141 20.77 3.75C20.77 3.05859 20.2114 2.5 19.52 2.5H8.27002ZM8.27002 8.75C7.57861 8.75 7.02002 9.30859 7.02002 10C7.02002 10.6914 7.57861 11.25 8.27002 11.25H19.52C20.2114 11.25 20.77 10.6914 20.77 10C20.77 9.30859 20.2114 8.75 19.52 8.75H8.27002ZM8.27002 15C7.57861 15 7.02002 15.5586 7.02002 16.25C7.02002 16.9414 7.57861 17.5 8.27002 17.5H19.52C20.2114 17.5 20.77 16.9414 20.77 16.25C20.77 15.5586 20.2114 15 19.52 15H8.27002ZM1.39502 9.0625V10.9375C1.39502 11.457 1.81299 11.875 2.33252 11.875H4.20752C4.72705 11.875 5.14502 11.457 5.14502 10.9375V9.0625C5.14502 8.54297 4.72705 8.125 4.20752 8.125H2.33252C1.81299 8.125 1.39502 8.54297 1.39502 9.0625ZM2.33252 14.375C1.81299 14.375 1.39502 14.793 1.39502 15.3125V17.1875C1.39502 17.707 1.81299 18.125 2.33252 18.125H4.20752C4.72705 18.125 5.14502 17.707 5.14502 17.1875V15.3125C5.14502 14.793 4.72705 14.375 4.20752 14.375H2.33252Z" fill="white"/>
</svg>
