<svg width="25" height="24" viewBox="0 0 25 24" fill="none" xmlns="http://www.w3.org/2000/svg">
<path d="M11.4199 12C11.4199 12.2652 11.5253 12.5196 11.7128 12.7071C11.9004 12.8946 12.1547 13 12.4199 13C12.6851 13 12.9395 12.8946 13.127 12.7071C13.3146 12.5196 13.4199 12.2652 13.4199 12C13.4199 11.7348 13.3146 11.4804 13.127 11.2929C12.9395 11.1054 12.6851 11 12.4199 11C12.1547 11 11.9004 11.1054 11.7128 11.2929C11.5253 11.4804 11.4199 11.7348 11.4199 12Z" stroke="#8774E1" stroke-width="2" stroke-linecap="round" stroke-linejoin="round"/>
<path d="M12.4199 7C11.431 7 10.4643 7.29324 9.64207 7.84265C8.81983 8.39206 8.17896 9.17295 7.80053 10.0866C7.42209 11.0002 7.32307 12.0055 7.516 12.9755C7.70892 13.9454 8.18513 14.8363 8.88439 15.5355C9.58365 16.2348 10.4746 16.711 11.4445 16.9039C12.4144 17.0969 13.4197 16.9978 14.3333 16.6194C15.247 16.241 16.0279 15.6001 16.5773 14.7779C17.1267 13.9556 17.4199 12.9889 17.4199 12" stroke="#8774E1" stroke-width="2" stroke-linecap="round" stroke-linejoin="round"/>
<path d="M13.4204 3.05514C11.5665 2.84715 9.69371 3.22042 8.0612 4.12331C6.42868 5.0262 5.11708 6.41409 4.30784 8.095C3.49859 9.77591 3.23169 11.6667 3.54406 13.506C3.85642 15.3452 4.73262 17.0419 6.05144 18.3614C7.37026 19.6809 9.06652 20.5579 10.9056 20.8712C12.7447 21.1845 14.6356 20.9186 16.3169 20.1102C17.9983 19.3018 19.3868 17.9909 20.2905 16.3588C21.1942 14.7267 21.5684 12.8542 21.3614 11.0001" stroke="#8774E1" stroke-width="2" stroke-linecap="round" stroke-linejoin="round"/>
<path d="M15.4199 6V9H18.4199L21.4199 6H18.4199V3L15.4199 6Z" stroke="#8774E1" stroke-width="2" stroke-linecap="round" stroke-linejoin="round"/>
<path d="M15.4199 9L12.4199 12" stroke="#8774E1" stroke-width="2" stroke-linecap="round" stroke-linejoin="round"/>
<rect x="14.5" y="0.01" width="10" height="10" rx="5" fill="#EF4444"/>
</svg>
