<svg width="25" height="24" viewBox="0 0 25 24" fill="none" xmlns="http://www.w3.org/2000/svg">
<path d="M3.83008 6.74985H14.459C14.6142 7.18837 14.9015 7.56801 15.2813 7.83652C15.6612 8.10503 16.1149 8.24921 16.5801 8.24921C17.0452 8.24921 17.499 8.10503 17.8788 7.83652C18.2587 7.56801 18.546 7.18837 18.7012 6.74985H21.8301C22.029 6.74985 22.2198 6.67083 22.3604 6.53018C22.5011 6.38953 22.5801 6.19876 22.5801 5.99985C22.5801 5.80094 22.5011 5.61017 22.3604 5.46952C22.2198 5.32887 22.029 5.24985 21.8301 5.24985H18.7012C18.546 4.81133 18.2587 4.43168 17.8788 4.16317C17.499 3.89467 17.0452 3.75049 16.5801 3.75049C16.1149 3.75049 15.6612 3.89467 15.2813 4.16317C14.9015 4.43168 14.6142 4.81133 14.459 5.24985H3.83008C3.63117 5.24985 3.4404 5.32887 3.29975 5.46952C3.1591 5.61017 3.08008 5.80094 3.08008 5.99985C3.08008 6.19876 3.1591 6.38953 3.29975 6.53018C3.4404 6.67083 3.63117 6.74985 3.83008 6.74985ZM21.8301 17.2498H18.7012C18.546 16.8113 18.2587 16.4317 17.8788 16.1632C17.499 15.8947 17.0452 15.7505 16.5801 15.7505C16.1149 15.7505 15.6612 15.8947 15.2813 16.1632C14.9015 16.4317 14.6142 16.8113 14.459 17.2498H3.83008C3.63117 17.2498 3.4404 17.3289 3.29975 17.4695C3.1591 17.6102 3.08008 17.8009 3.08008 17.9998C3.08008 18.1988 3.1591 18.3895 3.29975 18.5302C3.4404 18.6708 3.63117 18.7498 3.83008 18.7498H14.459C14.6142 19.1884 14.9015 19.568 15.2813 19.8365C15.6612 20.105 16.1149 20.2492 16.5801 20.2492C17.0452 20.2492 17.499 20.105 17.8788 19.8365C18.2587 19.568 18.546 19.1884 18.7012 18.7498H21.8301C22.029 18.7498 22.2198 18.6708 22.3604 18.5302C22.5011 18.3895 22.5801 18.1988 22.5801 17.9998C22.5801 17.8009 22.5011 17.6102 22.3604 17.4695C22.2198 17.3289 22.029 17.2498 21.8301 17.2498ZM21.8301 11.2498H11.2012C11.046 10.8113 10.7587 10.4317 10.3788 10.1632C9.99899 9.89467 9.54525 9.75049 9.08008 9.75049C8.61491 9.75049 8.16117 9.89467 7.78132 10.1632C7.40147 10.4317 7.11417 10.8113 6.95898 11.2498H3.83008C3.63117 11.2498 3.4404 11.3289 3.29975 11.4695C3.1591 11.6102 3.08008 11.8009 3.08008 11.9998C3.08008 12.1988 3.1591 12.3895 3.29975 12.5302C3.4404 12.6708 3.63117 12.7498 3.83008 12.7498H6.95898C7.11417 13.1884 7.40147 13.568 7.78132 13.8365C8.16117 14.105 8.61491 14.2492 9.08008 14.2492C9.54525 14.2492 9.99899 14.105 10.3788 13.8365C10.7587 13.568 11.046 13.1884 11.2012 12.7498H21.8301C22.029 12.7498 22.2198 12.6708 22.3604 12.5302C22.5011 12.3895 22.5801 12.1988 22.5801 11.9998C22.5801 11.8009 22.5011 11.6102 22.3604 11.4695C22.2198 11.3289 22.029 11.2498 21.8301 11.2498Z" fill="#8774E1"/>
</svg>
