<svg width="49" height="48" viewBox="0 0 49 48" fill="none" xmlns="http://www.w3.org/2000/svg">
<g clip-path="url(#clip0_22_2290)">
<g clip-path="url(#clip1_22_2290)">
<path fill-rule="evenodd" clip-rule="evenodd" d="M11.404 6H37.595C40.304 6 42.5 8.196 42.5 10.904V37.095C42.5 39.804 40.304 42 37.596 42H11.404C8.696 42 6.5 39.804 6.5 37.096V10.904C6.5 8.196 8.696 6 11.404 6Z" fill="#212121"/>
<path fill-rule="evenodd" clip-rule="evenodd" d="M29.7083 20.607C31.2843 21.733 33.2153 22.395 35.3003 22.395V18.384C34.9053 18.384 34.5123 18.343 34.1263 18.261V21.418C32.0413 21.418 30.1113 20.755 28.5343 19.63V27.814C28.5343 31.908 25.2133 35.227 21.1173 35.227C19.5893 35.227 18.1683 34.765 16.9883 33.973C18.3353 35.349 20.2133 36.203 22.2913 36.203C26.3873 36.203 29.7083 32.884 29.7083 28.79V20.607ZM31.1573 16.561C30.3523 15.682 29.8233 14.545 29.7083 13.288V12.772H28.5953C28.8753 14.369 29.8313 15.734 31.1573 16.561ZM19.5793 30.832C19.1293 30.242 18.8863 29.521 18.8873 28.779C18.8873 26.906 20.4063 25.388 22.2803 25.388C22.6293 25.388 22.9763 25.441 23.3093 25.547V21.447C22.9203 21.394 22.5283 21.371 22.1353 21.379V24.57C21.8023 24.464 21.4553 24.411 21.1053 24.411C19.2313 24.411 17.7123 25.929 17.7123 27.802C17.7133 29.127 18.4723 30.274 19.5793 30.832Z" fill="#EC407A"/>
<path fill-rule="evenodd" clip-rule="evenodd" d="M28.534 19.63C30.11 20.756 32.041 21.418 34.126 21.418V18.261C32.962 18.013 31.932 17.405 31.157 16.56C29.831 15.733 28.876 14.369 28.596 12.772H25.673V28.79C25.666 30.657 24.15 32.169 22.28 32.169C21.178 32.169 20.199 31.644 19.579 30.831C18.472 30.273 17.713 29.126 17.713 27.802C17.713 25.929 19.232 24.411 21.106 24.411C21.465 24.411 21.811 24.467 22.136 24.57V21.38C18.112 21.463 14.876 24.749 14.876 28.791C14.876 30.809 15.682 32.638 16.99 33.974C18.17 34.766 19.591 35.228 21.119 35.228C25.215 35.228 28.536 31.909 28.536 27.815L28.534 19.63Z" fill="white"/>
<path fill-rule="evenodd" clip-rule="evenodd" d="M34.1262 18.2619V17.4079C33.0762 17.4099 32.0482 17.1159 31.1572 16.5599C31.9452 17.4229 32.9832 18.0179 34.1262 18.2619ZM28.5952 12.7719C28.5682 12.6189 28.5482 12.4659 28.5342 12.3109V11.7949H24.4982V27.8139C24.4922 29.6809 22.9752 31.1929 21.1052 31.1929C20.5562 31.1929 20.0382 31.0629 19.5792 30.8309C20.1992 31.6439 21.1782 32.1689 22.2802 32.1689C24.1502 32.1689 25.6662 30.6569 25.6732 28.7899V12.7719H28.5952ZM22.1352 21.3799V20.4709C21.7982 20.4249 21.4582 20.4019 21.1172 20.4019C17.0202 20.4019 13.7002 23.7209 13.7002 27.8149C13.7002 30.3819 15.0052 32.6439 16.9882 33.9739C15.6802 32.6379 14.8742 30.8089 14.8742 28.7909C14.8742 24.7489 18.1112 21.4629 22.1352 21.3799Z" fill="#81D4FA"/>
</g>
</g>
<defs>
<clipPath id="clip0_22_2290">
<rect width="48" height="48" fill="white" transform="translate(0.5)"/>
</clipPath>
<clipPath id="clip1_22_2290">
<rect width="48" height="48" fill="white" transform="translate(0.5)"/>
</clipPath>
</defs>
</svg>
