<svg width="25" height="24" viewBox="0 0 25 24" fill="none" xmlns="http://www.w3.org/2000/svg">
<path d="M4.67651 4.87512H19.6765C19.8517 4.87504 20.0268 4.88615 20.2006 4.9084C20.1417 4.49486 19.9996 4.09752 19.783 3.74036C19.5664 3.3832 19.2797 3.07361 18.9402 2.83025C18.6007 2.58688 18.2154 2.4148 17.8076 2.32436C17.3998 2.23392 16.9779 2.227 16.5673 2.30402L4.2312 4.41012H4.21714C3.4428 4.55819 2.7542 4.9963 2.29198 5.63496C2.98836 5.13965 3.82195 4.87401 4.67651 4.87512ZM19.6765 6.00012H4.67651C3.88113 6.00099 3.11857 6.31734 2.55615 6.87976C1.99373 7.44218 1.67738 8.20474 1.67651 9.00012V18.0001C1.67738 18.7955 1.99373 19.5581 2.55615 20.1205C3.11857 20.6829 3.88113 20.9992 4.67651 21.0001H19.6765C20.4719 20.9992 21.2345 20.6829 21.7969 20.1205C22.3593 19.5581 22.6756 18.7955 22.6765 18.0001V9.00012C22.6756 8.20474 22.3593 7.44218 21.7969 6.87976C21.2345 6.31734 20.4719 6.00099 19.6765 6.00012ZM17.45 15.0001C17.1533 15.0001 16.8633 14.9121 16.6166 14.7473C16.3699 14.5825 16.1777 14.3482 16.0641 14.0741C15.9506 13.8001 15.9209 13.4985 15.9788 13.2075C16.0367 12.9165 16.1795 12.6492 16.3893 12.4395C16.5991 12.2297 16.8663 12.0868 17.1573 12.0289C17.4483 11.9711 17.7499 12.0008 18.024 12.1143C18.2981 12.2278 18.5323 12.4201 18.6972 12.6668C18.862 12.9134 18.95 13.2034 18.95 13.5001C18.95 13.8979 18.7919 14.2795 18.5106 14.5608C18.2293 14.8421 17.8478 15.0001 17.45 15.0001Z" fill="#8774E1"/>
<path d="M1.69995 12.1641V7.5C1.69995 6.48422 2.26245 4.78125 4.2148 4.41234C5.87183 4.10156 7.51245 4.10156 7.51245 4.10156C7.51245 4.10156 8.59058 4.85156 7.69995 4.85156C6.80933 4.85156 6.83276 6 7.69995 6C8.56714 6 7.69995 7.10156 7.69995 7.10156L4.20776 11.0625L1.69995 12.1641Z" fill="#8774E1"/>
</svg>
