<svg width="25" height="24" viewBox="0 0 25 24" fill="none" xmlns="http://www.w3.org/2000/svg">
<path d="M4.67676 4.87512H19.6768C19.852 4.87504 20.027 4.88615 20.2008 4.9084C20.1419 4.49486 19.9999 4.09752 19.7832 3.74036C19.5666 3.3832 19.2799 3.07361 18.9404 2.83025C18.6009 2.58688 18.2156 2.4148 17.8078 2.32436C17.4 2.23392 16.9781 2.227 16.5675 2.30402L4.23145 4.41012H4.21738C3.44304 4.55819 2.75444 4.9963 2.29223 5.63496C2.9886 5.13965 3.8222 4.87401 4.67676 4.87512ZM19.6768 6.00012H4.67676C3.88137 6.00099 3.11882 6.31734 2.5564 6.87976C1.99398 7.44218 1.67763 8.20474 1.67676 9.00012V18.0001C1.67763 18.7955 1.99398 19.5581 2.5564 20.1205C3.11882 20.6829 3.88137 20.9993 4.67676 21.0001H19.6768C20.4721 20.9993 21.2347 20.6829 21.7971 20.1205C22.3595 19.5581 22.6759 18.7955 22.6768 18.0001V9.00012C22.6759 8.20474 22.3595 7.44218 21.7971 6.87976C21.2347 6.31734 20.4721 6.00099 19.6768 6.00012ZM17.4502 15.0001C17.1535 15.0001 16.8635 14.9121 16.6168 14.7473C16.3702 14.5825 16.1779 14.3482 16.0644 14.0741C15.9508 13.8001 15.9211 13.4985 15.979 13.2075C16.0369 12.9165 16.1798 12.6492 16.3895 12.4395C16.5993 12.2297 16.8666 12.0868 17.1576 12.0289C17.4485 11.9711 17.7501 12.0008 18.0242 12.1143C18.2983 12.2278 18.5326 12.4201 18.6974 12.6668C18.8622 12.9134 18.9502 13.2034 18.9502 13.5001C18.9502 13.8979 18.7922 14.2795 18.5109 14.5608C18.2296 14.8421 17.848 15.0001 17.4502 15.0001Z" fill="white"/>
<path d="M1.7002 12.1641V7.5C1.7002 6.48422 2.2627 4.78125 4.21504 4.41234C5.87207 4.10156 7.5127 4.10156 7.5127 4.10156C7.5127 4.10156 8.59082 4.85156 7.7002 4.85156C6.80957 4.85156 6.83301 6 7.7002 6C8.56738 6 7.7002 7.10156 7.7002 7.10156L4.20801 11.0625L1.7002 12.1641Z" fill="white"/>
</svg>
