<svg width="49" height="48" viewBox="0 0 49 48" fill="none" xmlns="http://www.w3.org/2000/svg">
<g clip-path="url(#clip0_22_2285)">
<g clip-path="url(#clip1_22_2285)">
<path d="M43.7 33.9C43.3 36 41.6 37.6 39.5 37.9C36.2 38.4 30.7 39 24.5 39C18.4 39 12.9 38.4 9.5 37.9C7.4 37.6 5.7 36 5.3 33.9C4.9 31.6 4.5 28.2 4.5 24C4.5 19.8 4.9 16.4 5.3 14.1C5.7 12 7.4 10.4 9.5 10.1C12.8 9.6 18.3 9 24.5 9C30.7 9 36.1 9.6 39.5 10.1C41.6 10.4 43.3 12 43.7 14.1C44.1 16.4 44.6 19.8 44.6 24C44.5 28.2 44.1 31.6 43.7 33.9Z" fill="#FF3D00"/>
<path d="M20.5 31V17L32.5 24L20.5 31Z" fill="white"/>
</g>
</g>
<defs>
<clipPath id="clip0_22_2285">
<rect width="48" height="48" fill="white" transform="translate(0.5)"/>
</clipPath>
<clipPath id="clip1_22_2285">
<rect width="48" height="48" fill="white" transform="translate(0.5)"/>
</clipPath>
</defs>
</svg>
